<svg id="svg" version="1.1" xmlns="http://www.w3.org/2000/svg" xmlns:xlink="http://www.w3.org/1999/xlink" width="400" height="110.37527593818984" viewBox="0, 0, 400,110.37527593818984"><g id="svgg"><path id="path0" d="M301.670 1.493 C 301.239 2.339,301.246 2.572,301.728 3.219 C 301.945 3.511,302.314 4.137,302.547 4.611 L 302.972 5.472 301.444 5.383 L 299.917 5.295 299.542 6.130 C 299.335 6.588,299.170 7.066,299.173 7.190 C 299.177 7.315,299.286 7.172,299.416 6.873 L 299.652 6.330 300.034 6.672 C 300.245 6.859,300.786 7.348,301.238 7.756 L 302.060 8.500 301.119 8.500 C 300.336 8.500,300.147 8.442,299.992 8.152 C 299.890 7.961,299.770 7.841,299.725 7.886 C 299.214 8.398,300.139 8.667,302.415 8.668 L 304.750 8.670 305.573 10.210 C 306.026 11.057,306.494 11.849,306.615 11.970 C 306.735 12.091,306.833 12.280,306.833 12.388 C 306.833 12.497,306.965 12.669,307.125 12.771 C 309.143 14.046,313.306 17.982,314.000 19.270 C 314.412 20.036,314.799 20.664,314.859 20.665 C 314.991 20.667,313.346 17.674,313.042 17.359 C 312.923 17.236,312.713 16.917,312.575 16.651 L 312.325 16.167 314.831 16.167 L 317.338 16.167 317.760 17.042 C 317.992 17.523,318.463 18.442,318.807 19.083 L 319.432 20.250 320.443 20.299 C 321.435 20.347,321.457 20.339,321.670 19.826 C 321.788 19.540,321.998 19.192,322.136 19.054 C 322.287 18.904,322.323 18.759,322.226 18.693 C 322.137 18.633,321.968 18.346,321.851 18.055 C 321.734 17.765,321.419 17.283,321.152 16.984 C 320.449 16.196,320.494 16.167,322.413 16.167 L 324.160 16.167 324.497 15.507 C 324.863 14.788,324.928 14.245,324.667 14.083 C 324.575 14.027,324.500 13.799,324.500 13.577 C 324.500 13.037,324.013 12.928,322.144 13.049 L 320.662 13.145 321.273 12.031 C 321.608 11.418,321.989 10.830,322.119 10.724 C 322.695 10.252,321.610 8.833,320.672 8.833 C 319.596 8.833,319.294 9.127,318.152 11.289 L 317.250 12.995 315.396 12.997 C 314.376 12.999,313.307 13.047,313.021 13.104 C 312.302 13.248,312.330 13.139,313.625 10.750 L 314.750 8.674 317.027 8.670 L 319.304 8.667 319.819 7.967 C 320.433 7.132,320.430 7.178,319.958 6.130 L 319.583 5.295 318.053 5.384 L 316.522 5.472 317.121 4.361 C 317.451 3.750,317.831 3.121,317.966 2.963 C 318.217 2.668,318.182 2.163,317.850 1.292 C 317.682 0.853,317.626 0.833,316.529 0.833 L 315.383 0.833 314.829 2.042 C 314.525 2.706,314.213 3.275,314.137 3.306 C 314.060 3.337,314.041 3.449,314.095 3.556 C 314.408 4.184,313.558 2.918,313.130 2.118 L 312.612 1.152 311.629 1.201 C 310.650 1.250,310.645 1.253,310.228 2.013 L 309.809 2.775 310.302 3.596 C 310.573 4.047,311.111 5.023,311.497 5.763 L 312.199 7.110 311.628 8.013 C 311.313 8.510,310.765 9.462,310.408 10.128 L 309.759 11.340 309.346 10.545 C 309.119 10.108,308.948 9.694,308.966 9.625 C 308.985 9.556,308.937 9.500,308.860 9.500 C 308.784 9.500,308.511 9.069,308.255 8.542 C 307.998 8.015,307.686 7.523,307.561 7.450 C 307.207 7.243,307.258 7.103,308.506 4.859 C 309.436 3.187,309.647 2.682,309.527 2.417 C 309.443 2.234,309.292 1.877,309.191 1.625 C 309.017 1.191,308.950 1.167,307.924 1.167 L 306.841 1.167 306.223 2.458 L 305.605 3.750 304.854 2.292 L 304.103 0.833 303.055 0.833 L 302.007 0.833 301.670 1.493 M297.489 9.856 L 297.137 10.545 297.497 10.897 L 297.856 11.250 297.664 10.820 C 297.512 10.478,297.525 10.263,297.728 9.778 C 298.072 8.954,297.924 9.002,297.489 9.856 M298.607 12.725 C 298.672 12.910,298.622 13.093,298.483 13.181 C 298.295 13.300,298.304 13.329,298.532 13.331 C 298.940 13.334,299.025 13.096,298.744 12.733 C 298.513 12.434,298.505 12.434,298.607 12.725 M294.768 13.930 C 294.591 14.390,294.657 14.827,295.003 15.507 L 295.340 16.167 297.103 16.167 L 298.866 16.167 298.516 16.760 C 298.324 17.086,298.242 17.307,298.334 17.249 C 298.586 17.094,299.002 16.224,298.882 16.104 C 298.825 16.047,298.014 16.000,297.081 16.000 L 295.384 16.000 295.086 15.340 C 294.897 14.919,294.826 14.497,294.890 14.174 C 294.999 13.630,294.933 13.499,294.768 13.930 M302.208 16.208 C 302.117 16.323,301.721 17.017,301.329 17.750 C 299.960 20.308,299.902 20.369,298.893 20.305 C 298.411 20.275,298.076 20.311,298.151 20.385 C 298.225 20.459,298.685 20.496,299.174 20.468 L 300.062 20.417 301.194 18.333 L 302.325 16.250 304.788 16.160 L 307.250 16.070 304.812 16.035 C 303.026 16.009,302.330 16.056,302.208 16.208 M306.463 17.292 C 306.135 17.665,305.621 18.676,305.712 18.767 C 305.750 18.805,305.917 18.536,306.083 18.168 C 306.248 17.801,306.440 17.500,306.507 17.500 C 306.575 17.500,306.674 17.387,306.727 17.250 C 306.853 16.922,306.776 16.934,306.463 17.292 M297.550 18.177 C 297.196 18.830,297.191 19.333,297.538 19.333 C 297.638 19.333,297.624 19.233,297.505 19.089 C 297.343 18.894,297.366 18.753,297.624 18.381 C 298.115 17.672,298.198 17.500,298.052 17.501 C 297.977 17.502,297.752 17.806,297.550 18.177 M309.481 18.208 C 309.372 18.415,309.230 18.621,309.164 18.667 C 309.098 18.712,308.842 19.162,308.596 19.667 C 308.349 20.171,307.921 20.978,307.645 21.461 L 307.142 22.339 307.654 23.036 C 307.974 23.470,308.167 23.626,308.167 23.450 C 308.167 23.294,308.110 23.164,308.042 23.161 C 307.183 23.125,308.357 19.591,309.744 18.038 C 309.799 17.977,312.167 22.171,312.167 22.329 C 312.167 22.398,312.009 22.671,311.817 22.936 L 311.467 23.417 311.909 22.939 C 312.448 22.356,312.497 22.534,311.089 19.958 C 309.853 17.697,309.787 17.626,309.481 18.208 M304.943 19.917 C 304.712 20.329,304.578 20.667,304.645 20.667 C 304.712 20.667,304.931 20.329,305.131 19.917 C 305.332 19.504,305.466 19.167,305.429 19.167 C 305.392 19.167,305.173 19.504,304.943 19.917 M316.835 20.690 C 316.836 20.814,317.474 21.437,318.253 22.074 C 319.386 23.000,319.651 23.299,319.579 23.574 C 319.530 23.762,319.676 23.579,319.904 23.167 C 320.448 22.182,320.436 22.008,319.775 21.243 C 319.166 20.539,316.831 20.099,316.835 20.690 M299.605 21.330 C 299.143 22.029,299.059 22.414,299.331 22.582 C 299.424 22.639,299.455 22.577,299.403 22.440 C 299.279 22.118,299.736 21.253,300.203 20.927 C 300.478 20.734,300.506 20.667,300.309 20.667 C 300.164 20.667,299.847 20.965,299.605 21.330 M310.913 24.373 C 310.681 24.854,310.599 25.135,310.731 24.998 C 310.979 24.741,311.540 23.500,311.409 23.500 C 311.368 23.500,311.145 23.893,310.913 24.373 M302.694 24.332 C 302.162 25.052,301.466 26.403,301.748 26.169 C 301.879 26.059,302.038 25.808,302.101 25.610 C 302.163 25.412,302.380 25.025,302.583 24.750 C 302.785 24.475,303.004 24.156,303.069 24.042 C 303.285 23.659,303.067 23.828,302.694 24.332 M316.485 24.139 C 316.575 24.307,316.779 24.550,316.939 24.680 C 317.119 24.827,317.079 24.710,316.834 24.375 C 316.396 23.777,316.232 23.666,316.485 24.139 M308.958 25.320 C 309.210 25.771,309.435 26.121,309.459 26.097 C 309.555 26.000,309.122 25.000,308.984 25.000 C 308.901 25.000,308.833 24.887,308.833 24.750 C 308.833 24.613,308.758 24.500,308.667 24.500 C 308.575 24.500,308.706 24.869,308.958 25.320 M313.628 25.846 C 313.287 26.441,313.330 26.460,313.797 25.923 C 313.993 25.697,314.099 25.478,314.031 25.436 C 313.963 25.394,313.782 25.579,313.628 25.846 M306.142 26.490 C 306.382 26.941,306.604 27.285,306.634 27.254 C 306.714 27.175,306.034 25.874,305.855 25.763 C 305.772 25.712,305.902 26.039,306.142 26.490 M304.809 26.676 C 304.568 27.127,304.439 27.454,304.522 27.403 C 304.700 27.293,305.381 25.992,305.301 25.912 C 305.271 25.882,305.049 26.226,304.809 26.676 M309.846 26.449 C 309.831 26.686,310.495 27.865,310.743 28.039 C 311.395 28.498,313.469 27.746,312.958 27.236 C 312.920 27.198,312.789 27.355,312.667 27.584 C 312.296 28.275,310.942 28.195,310.564 27.458 C 310.412 27.160,310.234 26.879,310.168 26.833 C 310.103 26.787,310.007 26.637,309.955 26.500 C 309.902 26.363,309.854 26.339,309.846 26.449 M309.297 26.958 C 309.157 27.119,308.958 27.415,308.854 27.616 C 308.703 27.908,308.486 27.995,307.790 28.044 L 306.917 28.105 307.861 28.136 L 308.805 28.167 309.224 27.417 C 309.677 26.606,309.693 26.504,309.297 26.958 M315.052 27.486 C 315.250 27.848,315.437 28.118,315.468 28.087 C 315.549 28.007,315.032 27.040,314.847 26.925 C 314.762 26.873,314.854 27.125,315.052 27.486 M301.333 27.142 C 301.333 28.083,303.922 29.078,304.099 28.204 C 304.122 28.087,304.104 28.069,304.057 28.162 C 303.790 28.702,302.178 28.342,301.833 27.667 C 301.506 27.024,301.333 26.844,301.333 27.142 M317.727 27.647 C 317.422 28.302,317.400 28.314,316.417 28.374 L 315.417 28.436 316.455 28.468 L 317.493 28.500 317.842 27.817 C 318.033 27.442,318.155 27.100,318.113 27.058 C 318.071 27.015,317.897 27.281,317.727 27.647 M138.371 33.369 C 139.038 33.938,140.221 34.970,141.000 35.661 C 141.779 36.353,143.842 38.112,145.583 39.570 C 147.325 41.028,148.975 42.429,149.250 42.684 C 149.525 42.938,149.980 43.357,150.261 43.615 C 150.541 43.872,151.925 45.058,153.336 46.250 C 154.746 47.442,156.527 48.960,157.293 49.624 L 158.686 50.831 146.968 50.874 L 135.250 50.917 135.236 51.583 C 135.222 52.220,135.224 52.223,135.286 51.650 L 135.350 51.050 155.853 50.928 C 167.129 50.861,203.257 50.861,236.136 50.928 L 295.917 51.050 295.917 77.900 L 295.917 104.750 309.667 104.752 L 323.417 104.753 310.542 104.709 C 303.460 104.685,297.667 104.607,297.667 104.537 C 297.667 104.467,297.876 104.148,298.133 103.830 C 298.389 103.511,299.077 102.500,299.663 101.583 C 300.248 100.667,300.776 99.879,300.837 99.833 C 300.898 99.787,301.417 99.009,301.991 98.104 C 302.565 97.198,303.271 96.139,303.559 95.751 C 303.847 95.362,304.533 94.346,305.083 93.493 C 305.633 92.640,306.571 91.215,307.167 90.326 C 308.184 88.809,308.859 87.797,310.429 85.429 C 310.789 84.886,311.571 83.714,312.167 82.825 C 312.762 81.936,313.710 80.506,314.271 79.646 C 314.833 78.787,315.531 77.746,315.823 77.333 C 316.516 76.352,318.172 73.874,319.666 71.583 C 320.324 70.575,321.222 69.225,321.663 68.583 L 322.464 67.417 322.076 67.000 C 321.699 66.596,320.451 64.915,316.851 59.965 C 315.898 58.655,314.916 57.358,314.670 57.083 C 314.423 56.808,313.518 55.608,312.657 54.417 C 311.797 53.225,311.005 52.175,310.897 52.083 C 310.790 51.992,310.035 50.979,309.221 49.833 C 308.407 48.688,307.405 47.330,306.995 46.817 C 306.585 46.304,305.688 45.110,305.000 44.164 C 304.313 43.217,303.671 42.362,303.573 42.263 C 303.476 42.164,302.770 41.221,302.004 40.167 C 301.237 39.112,300.564 38.212,300.507 38.167 C 300.450 38.121,299.700 37.108,298.841 35.917 C 297.981 34.725,297.066 33.521,296.806 33.242 C 296.546 32.963,296.333 32.644,296.333 32.534 C 296.333 32.380,293.872 32.333,285.706 32.333 L 275.078 32.333 274.562 33.125 C 274.278 33.560,273.875 34.252,273.667 34.662 C 273.459 35.071,273.158 35.596,272.998 35.828 C 272.838 36.060,272.417 36.767,272.062 37.398 C 271.707 38.030,271.261 38.818,271.072 39.148 C 270.882 39.479,270.495 40.178,270.213 40.702 C 269.930 41.225,269.551 41.863,269.370 42.118 C 269.190 42.374,268.805 43.033,268.515 43.583 C 268.225 44.133,267.830 44.846,267.637 45.167 C 266.402 47.216,264.833 49.991,264.833 50.124 C 264.833 50.853,265.344 50.833,246.114 50.833 C 226.779 50.833,227.333 50.855,227.333 50.095 C 227.333 50.005,227.082 49.665,226.774 49.340 C 226.467 49.016,225.592 47.925,224.829 46.917 C 224.066 45.908,223.174 44.774,222.846 44.396 C 222.145 43.587,222.012 43.419,219.819 40.583 C 218.898 39.392,217.770 37.967,217.313 37.417 C 216.855 36.867,215.870 35.610,215.123 34.625 C 214.376 33.640,213.706 32.833,213.633 32.833 C 213.560 32.833,213.500 32.721,213.500 32.583 C 213.500 32.363,211.936 32.333,200.425 32.333 C 186.350 32.333,186.997 32.293,185.751 33.243 C 185.384 33.522,184.935 33.862,184.753 34.000 C 184.111 34.485,182.964 35.762,182.291 36.741 L 181.610 37.731 181.347 37.157 C 181.202 36.842,181.043 36.546,180.992 36.500 C 180.942 36.454,180.719 36.154,180.496 35.833 C 179.843 34.890,179.804 34.844,178.549 33.561 L 177.348 32.333 157.253 32.333 L 137.158 32.333 138.371 33.369 M114.820 51.006 C 114.808 67.078,114.776 69.348,114.569 68.874 C 114.439 68.576,114.070 67.967,113.749 67.521 C 113.429 67.075,113.167 66.653,113.167 66.583 C 113.167 66.514,112.904 66.091,112.583 65.645 C 112.263 65.198,112.000 64.773,112.000 64.699 C 112.000 64.626,111.783 64.270,111.518 63.908 C 111.253 63.546,110.830 62.879,110.579 62.427 C 110.327 61.974,109.981 61.453,109.810 61.270 C 109.640 61.087,109.500 60.808,109.500 60.649 C 109.500 60.491,109.441 60.336,109.368 60.306 C 109.194 60.232,108.167 58.692,108.167 58.504 C 108.167 58.424,107.992 58.147,107.779 57.888 C 107.566 57.629,107.157 57.000,106.869 56.492 C 106.582 55.983,106.194 55.390,106.007 55.175 C 105.820 54.959,105.667 54.687,105.667 54.570 C 105.667 54.453,105.573 54.258,105.458 54.137 C 105.194 53.858,104.333 52.539,104.333 52.412 C 104.333 52.360,104.045 51.889,103.693 51.367 C 102.302 49.300,101.833 48.552,101.833 48.394 C 101.833 48.304,101.697 48.083,101.531 47.905 C 101.226 47.578,100.015 45.642,99.444 44.572 C 99.063 43.857,98.834 43.974,98.831 44.885 C 98.830 45.269,98.680 46.408,98.499 47.417 C 98.317 48.425,98.014 50.262,97.826 51.500 C 97.478 53.778,96.917 57.381,95.683 65.250 C 94.572 72.331,94.571 72.352,95.540 73.358 C 95.740 73.566,97.163 75.877,97.318 76.245 C 97.355 76.333,97.711 76.882,98.109 77.464 C 99.090 78.896,99.175 78.833,96.268 78.833 C 94.357 78.833,93.682 78.887,93.622 79.044 C 93.519 79.311,92.312 86.892,90.989 95.583 C 90.794 96.867,90.595 98.123,90.546 98.375 L 90.458 98.833 100.944 98.833 L 111.429 98.833 111.964 99.530 C 112.259 99.914,112.500 100.283,112.500 100.352 C 112.500 100.420,112.800 100.928,113.167 101.480 C 113.533 102.032,113.833 102.534,113.833 102.595 C 113.833 102.655,114.096 103.063,114.417 103.500 C 114.737 103.937,115.000 104.416,115.000 104.564 C 115.000 104.809,115.982 104.833,126.000 104.833 C 133.205 104.833,137.000 104.776,137.000 104.667 C 137.000 104.576,136.737 104.135,136.417 103.689 C 136.096 103.242,135.833 102.801,135.833 102.709 C 135.833 102.616,135.721 102.447,135.583 102.333 C 135.364 102.151,135.333 100.017,135.333 84.980 C 135.333 75.169,135.270 67.833,135.186 67.833 C 135.105 67.833,134.996 67.702,134.944 67.542 C 134.892 67.381,134.564 66.755,134.216 66.150 C 133.868 65.545,133.292 64.532,132.935 63.900 C 132.579 63.267,132.120 62.487,131.915 62.167 C 131.711 61.846,131.318 61.171,131.044 60.667 C 129.804 58.392,128.554 56.182,128.392 55.975 C 128.294 55.851,127.973 55.303,127.677 54.757 C 127.381 54.210,127.009 53.573,126.849 53.340 C 126.690 53.107,126.350 52.504,126.094 52.000 C 125.837 51.496,125.546 50.982,125.446 50.858 C 125.283 50.656,124.183 48.714,122.788 46.167 C 122.511 45.663,122.034 44.862,121.726 44.388 C 121.418 43.915,121.167 43.463,121.167 43.385 C 121.167 43.306,120.904 42.844,120.583 42.357 C 120.263 41.869,120.000 41.439,120.000 41.401 C 120.000 41.362,119.573 40.600,119.052 39.707 C 118.531 38.814,117.843 37.596,117.523 37.000 C 117.204 36.404,116.895 35.879,116.836 35.833 C 116.777 35.787,116.410 35.150,116.020 34.417 C 115.629 33.683,115.203 32.974,115.072 32.839 C 114.865 32.628,114.832 35.043,114.820 51.006 M67.532 68.958 C 67.514 88.231,67.561 104.000,67.636 104.000 C 67.711 104.000,68.586 102.256,69.581 100.125 C 70.576 97.994,71.910 95.162,72.545 93.833 C 74.117 90.544,74.995 88.693,75.830 86.917 C 76.217 86.092,76.820 84.817,77.169 84.083 C 77.518 83.350,78.078 82.150,78.412 81.417 C 78.747 80.683,79.089 79.956,79.172 79.801 C 79.256 79.646,80.481 77.059,81.895 74.051 C 83.310 71.044,84.580 68.358,84.718 68.083 C 84.856 67.808,85.232 67.021,85.552 66.333 C 85.872 65.646,86.479 64.368,86.901 63.494 C 87.825 61.575,87.827 61.542,87.042 60.620 C 86.698 60.217,86.199 59.609,85.934 59.269 C 85.668 58.929,84.676 57.661,83.729 56.450 C 82.783 55.240,81.231 53.237,80.280 52.000 C 79.329 50.762,78.394 49.563,78.202 49.333 C 77.206 48.147,76.752 47.572,75.246 45.583 C 74.344 44.392,73.431 43.229,73.218 43.000 C 73.005 42.771,72.232 41.796,71.501 40.833 C 69.610 38.345,69.001 37.571,68.300 36.770 C 67.750 36.141,67.678 35.950,67.624 34.991 C 67.591 34.400,67.550 49.685,67.532 68.958 M250.920 43.948 C 250.857 45.306,250.754 47.373,250.693 48.542 C 250.631 49.710,250.638 50.667,250.707 50.667 C 250.777 50.667,250.833 50.283,250.833 49.813 C 250.833 49.344,250.916 47.313,251.016 45.302 C 251.117 43.290,251.163 41.607,251.118 41.562 C 251.073 41.517,250.984 42.591,250.920 43.948 M322.872 54.792 L 322.910 58.917 322.958 54.875 L 323.006 50.834 354.045 50.792 L 385.083 50.749 353.958 50.708 L 322.833 50.667 322.872 54.792 M167.333 57.985 C 167.333 58.069,167.577 58.335,167.875 58.577 C 168.354 58.965,168.976 59.504,170.083 60.488 C 170.267 60.651,171.654 61.817,173.167 63.078 C 174.679 64.340,176.104 65.552,176.333 65.773 C 176.873 66.292,179.167 68.271,182.000 70.661 C 183.237 71.705,184.625 72.892,185.083 73.301 C 186.273 74.360,187.833 75.710,189.097 76.774 C 189.548 77.153,190.592 78.034,191.417 78.731 C 193.132 80.179,193.059 80.157,193.833 79.485 C 194.154 79.206,195.467 78.189,196.750 77.224 C 198.033 76.260,199.158 75.381,199.250 75.271 C 199.342 75.161,200.335 74.385,201.458 73.546 L 203.500 72.020 203.500 78.177 C 203.500 83.930,203.519 84.333,203.792 84.331 C 203.990 84.329,204.019 84.287,203.883 84.201 C 203.731 84.104,203.671 80.935,203.633 70.954 L 203.583 57.834 185.458 57.834 C 174.665 57.833,167.333 57.895,167.333 57.985 M263.667 58.263 C 263.667 58.316,264.112 59.272,264.655 60.388 C 265.199 61.504,266.183 63.542,266.842 64.917 C 267.500 66.292,268.675 68.729,269.451 70.333 C 270.871 73.265,271.360 74.283,273.416 78.583 C 274.653 81.171,275.882 83.733,277.335 86.750 C 277.865 87.850,278.802 89.800,279.417 91.083 C 280.826 94.024,281.682 95.795,283.990 100.547 C 285.004 102.635,285.833 104.416,285.833 104.505 C 285.833 104.608,281.823 104.667,274.834 104.667 L 263.835 104.667 263.792 82.042 L 263.749 59.417 263.708 82.125 L 263.667 104.833 274.625 104.831 C 280.652 104.830,285.865 104.783,286.208 104.726 L 286.833 104.623 286.833 81.395 L 286.833 58.167 275.250 58.167 C 268.879 58.167,263.667 58.210,263.667 58.263 M338.167 58.898 C 338.167 58.933,339.348 59.959,340.792 61.179 C 343.012 63.054,344.631 64.469,347.000 66.607 L 347.417 66.983 347.417 62.908 L 347.417 58.833 342.792 58.833 C 340.248 58.833,338.167 58.862,338.167 58.898 M140.096 59.667 C 140.157 59.896,140.276 60.196,140.361 60.333 C 140.469 60.507,140.482 60.456,140.404 60.167 C 140.343 59.938,140.224 59.637,140.139 59.500 C 140.031 59.326,140.018 59.377,140.096 59.667 M89.712 65.000 C 89.712 65.412,89.745 65.581,89.784 65.375 C 89.824 65.169,89.824 64.831,89.784 64.625 C 89.745 64.419,89.712 64.587,89.712 65.000 M91.179 66.417 C 91.385 66.783,91.625 67.158,91.712 67.250 C 91.962 67.512,91.391 66.456,91.082 66.083 C 90.929 65.900,90.973 66.050,91.179 66.417 M322.713 68.599 C 322.766 68.957,323.044 72.025,323.329 75.417 C 323.615 78.808,324.116 84.681,324.444 88.467 C 324.771 92.252,324.996 95.393,324.943 95.446 C 324.760 95.629,326.008 97.702,327.233 99.250 C 328.922 101.384,330.706 102.899,333.000 104.148 L 334.250 104.829 354.667 104.790 C 368.539 104.764,371.097 104.738,362.646 104.708 L 350.209 104.665 348.813 102.811 C 345.393 98.272,344.476 97.046,344.090 96.500 C 343.863 96.179,343.018 95.037,342.213 93.962 C 341.409 92.887,339.931 90.900,338.930 89.546 C 337.929 88.191,337.057 87.046,336.991 87.000 C 336.925 86.954,336.178 85.942,335.330 84.750 C 334.483 83.558,333.586 82.358,333.337 82.083 C 333.088 81.808,332.184 80.608,331.329 79.417 C 330.473 78.225,329.683 77.175,329.574 77.083 C 329.464 76.992,328.684 75.942,327.839 74.750 C 326.994 73.558,326.134 72.396,325.928 72.167 C 325.722 71.938,324.973 70.944,324.263 69.960 C 322.741 67.849,322.580 67.707,322.713 68.599 M93.578 70.323 C 93.717 70.592,93.907 70.859,93.999 70.916 C 94.092 70.973,94.010 70.753,93.817 70.427 C 93.395 69.711,93.223 69.637,93.578 70.323 M143.846 70.167 C 143.845 70.407,144.315 71.361,144.327 71.144 C 144.331 71.086,144.224 70.786,144.090 70.477 C 143.956 70.169,143.846 70.029,143.846 70.167 M145.026 73.417 C 145.026 73.508,145.126 73.846,145.250 74.167 C 145.374 74.487,145.477 74.637,145.480 74.500 C 145.483 74.362,145.382 74.025,145.256 73.750 C 145.130 73.475,145.027 73.325,145.026 73.417 M146.520 77.670 C 146.773 78.417,146.915 78.562,146.762 77.917 C 146.696 77.642,146.571 77.343,146.484 77.254 C 146.396 77.164,146.412 77.352,146.520 77.670 M244.827 84.708 C 244.709 85.006,244.449 85.475,244.247 85.750 C 244.046 86.025,243.711 86.587,243.502 87.000 C 243.294 87.412,242.809 88.275,242.424 88.917 C 242.039 89.558,241.545 90.421,241.326 90.833 C 241.107 91.246,240.840 91.696,240.734 91.833 C 240.628 91.971,240.261 92.608,239.920 93.250 C 239.579 93.892,239.206 94.529,239.091 94.667 C 238.976 94.804,238.623 95.404,238.305 96.000 C 237.988 96.596,237.339 97.750,236.864 98.566 C 236.389 99.381,236.000 100.102,236.000 100.168 C 236.000 100.234,235.859 100.468,235.687 100.687 C 235.515 100.906,235.131 101.534,234.836 102.084 C 234.540 102.634,234.067 103.440,233.786 103.877 L 233.275 104.670 212.482 104.627 C 201.047 104.603,191.791 104.640,191.915 104.709 C 192.038 104.778,203.031 104.815,216.344 104.792 L 240.549 104.750 241.858 102.250 C 242.577 100.875,243.538 99.037,243.993 98.167 C 244.448 97.296,245.160 95.946,245.575 95.167 C 245.990 94.388,246.620 93.188,246.974 92.500 C 247.329 91.813,247.938 90.650,248.328 89.917 C 248.717 89.183,249.415 87.871,249.878 87.000 C 250.341 86.129,250.858 85.218,251.027 84.974 C 251.579 84.178,251.539 84.167,248.187 84.167 L 245.040 84.167 244.827 84.708 M366.417 85.439 C 366.692 85.674,367.287 86.178,367.741 86.559 C 368.194 86.939,368.725 87.403,368.921 87.590 C 369.117 87.776,370.794 89.185,372.646 90.721 C 378.597 95.652,379.358 96.356,379.250 96.833 C 379.179 97.151,379.197 97.190,379.326 97.000 C 379.419 96.862,379.496 96.624,379.497 96.470 C 379.499 96.316,379.598 96.091,379.719 95.970 C 379.839 95.849,380.222 95.188,380.569 94.500 C 380.917 93.813,381.306 93.132,381.434 92.987 C 381.562 92.842,381.667 92.669,381.667 92.602 C 381.667 92.535,382.229 91.474,382.917 90.245 C 383.604 89.015,384.167 87.955,384.167 87.889 C 384.167 87.822,384.354 87.483,384.583 87.134 C 384.813 86.785,385.188 86.215,385.417 85.866 C 385.646 85.517,385.833 85.180,385.833 85.116 C 385.833 85.052,381.352 85.002,375.875 85.005 L 365.917 85.011 366.417 85.439 M150.012 87.500 C 150.012 87.740,150.482 88.694,150.494 88.477 C 150.497 88.419,150.390 88.119,150.257 87.811 C 150.123 87.502,150.013 87.362,150.012 87.500 M179.169 90.264 C 179.171 90.440,179.248 90.696,179.341 90.833 C 179.464 91.016,179.480 90.948,179.398 90.583 C 179.261 89.971,179.166 89.837,179.169 90.264 M151.405 91.417 C 151.470 91.692,151.595 91.990,151.683 92.080 C 151.771 92.169,151.754 91.982,151.646 91.663 C 151.394 90.917,151.252 90.772,151.405 91.417 M323.670 92.940 C 323.668 93.045,323.815 93.457,323.996 93.857 C 324.178 94.256,324.328 94.498,324.330 94.393 C 324.332 94.289,324.185 93.876,324.004 93.477 C 323.822 93.077,323.672 92.836,323.670 92.940 M180.345 93.750 C 180.345 93.842,180.452 94.104,180.583 94.333 C 180.714 94.563,180.822 94.675,180.822 94.583 C 180.822 94.492,180.714 94.229,180.583 94.000 C 180.452 93.771,180.345 93.658,180.345 93.750 M152.690 94.833 C 152.690 94.971,152.755 95.233,152.833 95.417 C 152.924 95.627,152.977 95.658,152.977 95.500 C 152.977 95.362,152.912 95.100,152.833 94.917 C 152.743 94.707,152.690 94.676,152.690 94.833 M181.506 96.083 C 181.507 96.175,181.661 96.438,181.848 96.667 C 182.075 96.943,182.131 96.971,182.017 96.750 C 181.736 96.206,181.505 95.905,181.506 96.083 M89.709 99.417 C 89.711 99.783,89.745 99.914,89.785 99.706 C 89.824 99.499,89.823 99.199,89.781 99.040 C 89.739 98.880,89.707 99.050,89.709 99.417 M188.514 103.229 C 188.685 103.382,189.667 103.833,189.667 103.759 C 189.667 103.663,188.743 103.167,188.564 103.167 C 188.498 103.167,188.476 103.195,188.514 103.229 M89.667 104.165 L 89.667 104.664 78.542 104.708 L 67.417 104.752 78.625 104.793 L 89.833 104.833 89.833 104.250 C 89.833 103.929,89.796 103.667,89.750 103.667 C 89.704 103.667,89.667 103.891,89.667 104.165 M156.234 104.458 L 156.552 104.833 167.317 104.793 L 178.083 104.752 167.345 104.708 C 157.417 104.668,156.581 104.642,156.262 104.374 C 155.917 104.084,155.917 104.084,156.234 104.458 " stroke="none" fill="#1c6ca3" fill-rule="evenodd"></path><path id="path1" d="M299.471 6.748 C 299.102 7.557,299.998 8.500,301.136 8.500 L 302.060 8.500 301.238 7.756 C 300.786 7.348,300.246 6.861,300.037 6.675 L 299.658 6.337 299.471 6.748 M298.027 8.969 C 297.905 9.052,297.823 9.150,297.846 9.185 C 297.868 9.221,297.796 9.526,297.684 9.863 C 297.471 10.508,297.695 11.133,298.667 12.611 C 299.089 13.252,298.908 13.416,298.044 13.176 C 295.571 12.489,294.214 13.524,295.114 15.411 L 295.395 16.000 297.104 16.000 C 299.191 16.000,299.182 15.988,298.168 17.549 L 297.346 18.814 297.770 19.574 C 298.182 20.310,298.219 20.333,298.992 20.333 C 299.903 20.333,300.010 20.216,301.329 17.750 C 301.721 17.017,302.117 16.323,302.208 16.208 C 302.422 15.939,307.167 15.907,307.167 16.175 C 307.167 16.384,306.668 17.382,306.505 17.500 C 306.441 17.546,306.028 18.258,305.588 19.083 L 304.786 20.583 302.935 20.535 C 300.774 20.478,300.121 20.702,299.595 21.684 L 299.273 22.285 299.723 23.053 L 300.173 23.821 301.683 23.869 L 303.192 23.917 302.679 24.624 C 302.397 25.012,302.167 25.383,302.167 25.448 C 302.167 25.513,301.978 25.838,301.746 26.172 L 301.326 26.778 301.761 27.556 C 302.191 28.325,302.204 28.333,303.058 28.333 L 303.921 28.333 304.725 26.829 L 305.529 25.325 305.835 25.714 C 306.003 25.928,306.343 26.530,306.590 27.052 L 307.039 28.000 307.849 28.000 C 308.568 28.000,308.685 27.948,308.901 27.530 C 309.035 27.271,309.262 26.961,309.406 26.842 C 309.678 26.616,308.558 24.236,307.545 22.888 L 307.148 22.360 307.615 21.500 C 307.873 21.028,308.287 20.253,308.536 19.779 C 309.174 18.565,309.767 17.709,309.884 17.834 C 310.043 18.002,312.333 22.222,312.333 22.346 C 312.333 22.417,312.147 22.695,311.920 22.966 C 311.693 23.236,311.353 23.785,311.165 24.187 C 310.978 24.588,310.640 25.217,310.415 25.583 C 310.008 26.247,309.877 26.833,310.136 26.833 C 310.210 26.833,310.397 27.096,310.550 27.417 C 311.043 28.450,312.286 28.297,312.921 27.125 C 313.181 26.644,313.522 26.037,313.679 25.777 L 313.964 25.305 314.477 26.194 C 314.760 26.683,315.124 27.364,315.287 27.707 C 315.770 28.722,317.251 28.650,317.779 27.587 C 318.112 26.916,318.141 26.167,317.834 26.167 C 317.764 26.167,317.613 25.939,317.498 25.661 C 317.383 25.383,317.067 24.877,316.795 24.536 L 316.302 23.917 317.854 23.868 C 319.268 23.824,319.654 23.708,319.664 23.323 C 319.666 23.271,319.030 22.708,318.251 22.073 C 317.473 21.437,316.836 20.814,316.835 20.689 C 316.834 20.513,316.591 20.477,315.778 20.528 L 314.723 20.596 313.986 19.238 C 313.290 17.954,313.096 17.750,310.417 15.499 C 308.858 14.189,307.457 13.009,307.303 12.877 C 307.051 12.660,307.033 12.673,307.121 13.011 C 307.209 13.347,307.177 13.371,306.818 13.247 C 306.597 13.170,305.479 13.089,304.333 13.065 L 302.250 13.023 301.857 12.220 C 301.641 11.778,301.415 11.379,301.353 11.333 C 301.292 11.287,301.062 10.905,300.843 10.484 C 300.102 9.059,298.869 8.396,298.027 8.969 M67.591 34.208 C 67.708 36.054,67.720 36.094,68.313 36.779 C 69.007 37.580,69.641 38.386,71.501 40.833 C 72.232 41.796,73.005 42.771,73.218 43.000 C 73.431 43.229,74.344 44.392,75.246 45.583 C 76.752 47.572,77.206 48.147,78.202 49.333 C 78.394 49.563,79.329 50.762,80.280 52.000 C 81.231 53.237,82.783 55.240,83.729 56.450 C 84.676 57.661,85.668 58.929,85.934 59.269 C 86.199 59.609,86.698 60.217,87.042 60.620 C 87.827 61.542,87.825 61.575,86.901 63.494 C 86.479 64.368,85.872 65.646,85.552 66.333 C 85.232 67.021,84.856 67.808,84.718 68.083 C 84.580 68.358,83.310 71.044,81.895 74.051 C 80.481 77.059,79.256 79.646,79.172 79.801 C 79.089 79.956,78.747 80.683,78.412 81.417 C 78.078 82.150,77.518 83.350,77.169 84.083 C 76.820 84.817,76.217 86.092,75.830 86.917 C 75.059 88.558,74.209 90.347,72.743 93.417 C 72.217 94.517,70.893 97.329,69.799 99.667 C 68.706 102.004,67.742 103.942,67.656 103.972 C 67.570 104.003,67.500 104.172,67.500 104.347 C 67.500 104.659,67.772 104.667,78.570 104.667 L 89.640 104.667 89.760 103.547 C 89.826 102.930,89.834 101.618,89.777 100.630 L 89.674 98.833 90.070 98.833 C 90.507 98.833,90.519 98.788,91.084 95.000 C 91.993 88.903,93.519 79.311,93.622 79.044 C 93.684 78.882,93.256 78.833,91.768 78.833 L 89.833 78.833 89.833 72.608 C 89.833 69.184,89.784 65.911,89.724 65.335 C 89.651 64.634,89.672 64.309,89.789 64.352 C 89.986 64.425,91.187 66.162,91.909 67.417 C 92.172 67.875,92.435 68.287,92.494 68.333 C 92.552 68.379,93.059 69.188,93.620 70.131 C 94.750 72.030,94.751 72.030,94.904 70.500 C 94.963 69.904,95.316 67.504,95.688 65.167 C 96.479 60.185,97.343 54.667,97.826 51.500 C 98.014 50.262,98.314 48.425,98.493 47.417 C 98.978 44.669,98.987 43.851,98.539 43.221 C 98.334 42.934,98.167 42.650,98.167 42.591 C 98.167 42.532,97.878 42.056,97.524 41.534 C 96.717 40.338,95.649 38.687,95.402 38.250 C 94.901 37.364,93.768 35.556,93.574 35.333 C 93.454 35.195,93.257 34.895,93.135 34.666 C 93.013 34.437,92.653 33.819,92.334 33.292 L 91.755 32.333 79.614 32.333 L 67.472 32.333 67.591 34.208 M114.833 32.409 C 114.833 32.451,115.028 32.770,115.266 33.118 C 115.504 33.465,115.926 34.200,116.204 34.750 C 116.482 35.300,116.762 35.787,116.826 35.833 C 116.890 35.879,117.204 36.404,117.523 37.000 C 117.843 37.596,118.531 38.814,119.052 39.707 C 119.573 40.600,120.000 41.362,120.000 41.401 C 120.000 41.439,120.263 41.869,120.583 42.357 C 120.904 42.844,121.167 43.306,121.167 43.385 C 121.167 43.463,121.418 43.915,121.726 44.388 C 122.034 44.862,122.511 45.663,122.788 46.167 C 124.183 48.714,125.283 50.656,125.446 50.858 C 125.546 50.982,125.837 51.496,126.094 52.000 C 126.350 52.504,126.690 53.107,126.849 53.340 C 127.009 53.573,127.381 54.210,127.677 54.757 C 127.973 55.303,128.294 55.851,128.392 55.975 C 128.554 56.182,129.804 58.392,131.044 60.667 C 131.318 61.171,131.711 61.846,131.915 62.167 C 132.120 62.487,132.579 63.267,132.935 63.900 C 133.292 64.532,133.868 65.545,134.216 66.150 C 134.564 66.755,134.892 67.381,134.944 67.542 C 135.289 68.602,135.354 67.182,135.319 59.375 L 135.282 50.917 146.984 50.874 L 158.686 50.831 157.293 49.624 C 156.527 48.960,154.746 47.442,153.336 46.250 C 151.925 45.058,150.541 43.872,150.261 43.615 C 149.980 43.357,149.525 42.938,149.250 42.684 C 148.975 42.429,147.325 41.028,145.583 39.570 C 143.842 38.112,141.779 36.353,141.000 35.661 C 140.221 34.970,139.038 33.938,138.371 33.369 L 137.158 32.333 125.996 32.333 C 119.856 32.333,114.833 32.368,114.833 32.409 M213.500 32.583 C 213.500 32.721,213.560 32.833,213.633 32.833 C 213.706 32.833,214.376 33.640,215.123 34.625 C 215.870 35.610,216.855 36.867,217.313 37.417 C 217.770 37.967,218.898 39.392,219.819 40.583 C 222.012 43.419,222.145 43.587,222.846 44.396 C 223.174 44.774,224.066 45.908,224.829 46.917 C 225.592 47.925,226.467 49.016,226.774 49.340 C 227.082 49.665,227.333 50.005,227.333 50.095 C 227.333 50.855,226.776 50.833,246.143 50.833 C 265.595 50.833,264.833 50.863,264.833 50.095 C 264.833 49.985,266.509 47.038,267.637 45.167 C 267.830 44.846,268.225 44.133,268.515 43.583 C 268.805 43.033,269.190 42.374,269.370 42.118 C 269.551 41.863,269.930 41.225,270.213 40.702 C 270.495 40.178,270.882 39.479,271.072 39.148 C 271.261 38.818,271.708 38.030,272.065 37.398 C 272.421 36.767,272.879 35.987,273.083 35.667 C 273.287 35.346,273.729 34.580,274.065 33.966 C 274.400 33.351,274.748 32.803,274.837 32.747 C 275.434 32.379,274.158 32.333,263.253 32.333 L 251.506 32.333 251.428 32.708 C 251.332 33.171,251.142 38.440,251.084 42.250 C 251.023 46.281,250.806 50.667,250.668 50.667 C 250.603 50.667,250.346 50.187,250.097 49.600 C 249.847 49.013,249.461 48.286,249.238 47.984 C 249.016 47.682,248.833 47.334,248.833 47.210 C 248.833 47.086,248.571 46.574,248.250 46.072 C 247.929 45.571,247.667 45.060,247.667 44.937 C 247.667 44.814,247.477 44.433,247.245 44.092 C 247.013 43.750,246.596 43.008,246.318 42.443 C 246.041 41.879,245.523 40.892,245.167 40.250 C 244.812 39.608,244.249 38.558,243.917 37.917 C 243.585 37.275,242.983 36.150,242.578 35.417 C 242.174 34.683,241.655 33.690,241.424 33.208 L 241.004 32.333 227.252 32.333 C 215.139 32.333,213.500 32.363,213.500 32.583 M296.333 32.534 C 296.333 32.644,296.546 32.963,296.806 33.242 C 297.066 33.521,297.981 34.725,298.841 35.917 C 299.700 37.108,300.450 38.121,300.507 38.167 C 300.564 38.212,301.237 39.112,302.004 40.167 C 302.770 41.221,303.476 42.164,303.573 42.263 C 303.671 42.362,304.313 43.217,305.000 44.164 C 305.688 45.110,306.585 46.304,306.995 46.817 C 307.405 47.330,308.407 48.688,309.221 49.833 C 310.035 50.979,310.790 51.992,310.897 52.083 C 311.005 52.175,311.797 53.225,312.657 54.417 C 313.518 55.608,314.423 56.808,314.670 57.083 C 314.916 57.358,315.898 58.655,316.851 59.965 C 320.451 64.915,321.699 66.596,322.076 67.000 L 322.464 67.417 321.663 68.583 C 321.222 69.225,320.324 70.575,319.666 71.583 C 318.172 73.874,316.516 76.352,315.823 77.333 C 315.531 77.746,314.833 78.787,314.271 79.646 C 313.710 80.506,312.762 81.937,312.167 82.826 C 311.571 83.716,310.740 84.962,310.321 85.597 C 309.402 86.989,308.604 88.185,307.167 90.327 C 306.571 91.215,305.633 92.640,305.083 93.493 C 304.533 94.346,303.847 95.362,303.559 95.751 C 303.271 96.139,302.565 97.198,301.991 98.104 C 301.417 99.009,300.898 99.787,300.837 99.833 C 300.776 99.879,300.248 100.667,299.663 101.583 C 299.077 102.500,298.389 103.511,298.133 103.830 C 297.876 104.148,297.667 104.467,297.667 104.538 C 297.667 104.609,303.442 104.667,310.500 104.667 L 323.333 104.667 323.342 98.208 L 323.351 91.750 323.768 92.833 C 323.997 93.429,324.248 94.112,324.324 94.352 C 324.527 94.985,324.847 95.542,324.949 95.440 C 325.031 95.358,324.807 92.615,323.253 74.672 C 322.940 71.054,322.713 68.065,322.748 68.030 C 322.784 67.994,323.399 68.774,324.115 69.764 C 324.831 70.753,325.644 71.829,325.923 72.156 C 326.201 72.483,327.093 73.688,327.904 74.833 C 328.715 75.979,329.468 76.992,329.576 77.083 C 329.684 77.175,330.473 78.225,331.329 79.417 C 332.184 80.608,333.088 81.808,333.337 82.083 C 333.586 82.358,334.483 83.558,335.330 84.750 C 336.178 85.942,336.925 86.954,336.991 87.000 C 337.057 87.046,337.929 88.191,338.930 89.546 C 339.931 90.900,341.409 92.887,342.213 93.962 C 343.018 95.037,343.863 96.179,344.090 96.500 C 344.476 97.046,345.391 98.268,348.814 102.812 L 350.211 104.667 362.576 104.667 L 374.940 104.667 375.720 103.277 C 376.149 102.513,376.500 101.831,376.500 101.761 C 376.500 101.692,376.647 101.429,376.826 101.177 C 377.005 100.925,377.408 100.239,377.721 99.651 C 378.034 99.064,378.524 98.171,378.809 97.667 C 379.094 97.162,379.329 96.675,379.330 96.583 C 379.334 96.375,377.016 94.342,372.646 90.721 C 370.794 89.185,369.097 87.763,368.877 87.560 C 368.148 86.889,367.594 86.409,366.727 85.700 L 365.870 85.000 356.685 85.000 L 347.500 85.000 347.500 76.030 L 347.500 67.059 345.458 65.233 C 344.335 64.229,342.203 62.378,340.720 61.120 L 338.024 58.833 330.429 58.833 L 322.833 58.833 322.833 54.749 L 322.833 50.664 354.083 50.707 C 378.995 50.741,385.333 50.708,385.333 50.542 C 385.333 50.427,385.266 50.333,385.183 50.333 C 385.100 50.333,384.959 50.123,384.869 49.865 C 384.780 49.607,384.601 49.289,384.472 49.157 C 384.140 48.817,382.333 46.165,382.333 46.018 C 382.333 45.951,382.199 45.751,382.034 45.573 C 381.787 45.306,380.597 43.586,379.917 42.513 C 379.826 42.368,379.563 41.988,379.334 41.667 C 379.104 41.346,378.626 40.634,378.271 40.084 C 377.916 39.533,377.560 39.058,377.480 39.028 C 377.399 38.997,377.333 38.869,377.333 38.742 C 377.333 38.615,377.120 38.265,376.858 37.964 C 376.597 37.663,376.278 37.223,376.150 36.987 C 375.787 36.317,374.299 34.120,373.966 33.760 C 373.801 33.583,373.667 33.342,373.667 33.225 C 373.667 32.282,374.863 32.333,352.887 32.333 C 330.143 32.333,332.340 32.194,329.995 33.785 C 326.768 35.974,324.348 39.611,323.531 43.500 C 323.420 44.030,323.367 42.499,323.353 38.292 L 323.333 32.333 309.833 32.333 C 299.430 32.333,296.333 32.379,296.333 32.534 M139.717 58.208 C 139.766 58.415,140.114 59.446,140.491 60.500 C 141.214 62.523,142.046 64.864,142.682 66.667 C 142.892 67.262,143.339 68.500,143.675 69.417 C 144.249 70.983,144.697 72.244,145.303 74.000 C 145.772 75.360,146.348 76.911,146.511 77.250 C 146.599 77.433,146.776 77.958,146.905 78.417 C 147.104 79.126,147.638 80.625,149.057 84.461 C 149.202 84.852,149.316 85.210,149.312 85.258 C 149.307 85.306,149.560 86.036,149.874 86.881 C 150.188 87.726,150.579 88.792,150.744 89.250 C 150.908 89.708,151.364 90.983,151.758 92.083 C 152.152 93.183,152.604 94.458,152.762 94.917 C 152.920 95.375,153.300 96.425,153.607 97.250 C 153.915 98.075,154.286 99.162,154.433 99.667 C 154.580 100.171,154.759 100.658,154.831 100.750 C 154.902 100.842,155.170 101.579,155.426 102.390 C 155.682 103.200,156.034 104.043,156.208 104.265 L 156.524 104.667 167.264 104.667 L 178.004 104.667 177.733 104.042 C 177.583 103.698,177.280 102.929,177.058 102.333 C 176.837 101.737,176.520 100.987,176.354 100.667 C 176.189 100.346,176.001 99.871,175.937 99.611 C 175.873 99.352,175.561 98.578,175.243 97.891 C 174.926 97.204,174.667 96.579,174.667 96.502 C 174.667 96.425,174.413 95.774,174.103 95.056 C 173.793 94.338,173.222 92.962,172.832 92.000 C 172.443 91.037,171.856 89.623,171.528 88.856 C 171.199 88.090,170.917 87.378,170.900 87.273 C 170.883 87.169,170.599 86.471,170.268 85.723 C 169.937 84.975,169.667 84.292,169.667 84.205 C 169.667 84.118,169.367 83.397,169.000 82.604 C 168.633 81.810,168.331 81.068,168.329 80.955 C 168.326 80.842,168.031 80.150,167.672 79.417 L 167.019 78.083 169.134 77.983 C 172.526 77.822,174.749 76.817,177.417 74.238 L 178.583 73.110 178.671 80.596 C 178.753 87.602,178.783 88.185,179.133 89.667 C 180.827 96.833,185.446 102.442,191.211 104.335 C 192.198 104.659,192.701 104.667,212.749 104.667 L 233.277 104.667 233.787 103.875 C 234.068 103.440,234.540 102.634,234.836 102.084 C 235.131 101.534,235.515 100.906,235.687 100.687 C 235.859 100.468,236.000 100.234,236.000 100.168 C 236.000 100.102,236.389 99.381,236.864 98.566 C 237.339 97.750,237.988 96.596,238.305 96.000 C 238.623 95.404,238.976 94.804,239.091 94.667 C 239.206 94.529,239.579 93.892,239.920 93.250 C 240.261 92.608,240.628 91.971,240.734 91.833 C 240.840 91.696,241.107 91.246,241.326 90.833 C 241.545 90.421,242.039 89.558,242.424 88.917 C 242.809 88.275,243.294 87.412,243.501 87.000 C 243.709 86.587,244.026 86.063,244.205 85.833 C 244.483 85.478,245.000 84.433,245.000 84.227 C 245.000 84.191,235.662 84.181,224.250 84.206 L 203.500 84.250 203.500 78.135 L 203.500 72.020 201.458 73.546 C 200.335 74.385,199.342 75.161,199.250 75.271 C 199.158 75.381,198.033 76.260,196.750 77.224 C 195.467 78.189,194.154 79.206,193.833 79.485 C 193.059 80.157,193.132 80.179,191.417 78.731 C 190.592 78.034,189.548 77.153,189.097 76.774 C 187.833 75.710,186.273 74.360,185.083 73.301 C 184.625 72.892,183.237 71.705,182.000 70.661 C 179.167 68.271,176.873 66.292,176.333 65.773 C 176.104 65.552,174.679 64.340,173.167 63.078 C 171.654 61.817,170.267 60.651,170.083 60.488 C 169.900 60.325,169.420 59.905,169.016 59.554 C 168.613 59.204,168.024 58.673,167.708 58.375 L 167.133 57.833 153.381 57.833 L 139.628 57.833 139.717 58.208 M263.740 59.232 C 263.792 59.680,263.833 70.086,263.833 82.357 L 263.833 104.667 274.833 104.667 C 281.823 104.667,285.833 104.608,285.833 104.505 C 285.833 104.416,285.004 102.635,283.990 100.547 C 281.682 95.795,280.826 94.024,279.417 91.083 C 278.802 89.800,277.865 87.850,277.335 86.750 C 275.882 83.733,274.653 81.171,273.416 78.583 C 271.360 74.283,270.871 73.265,269.451 70.333 C 268.675 68.729,267.500 66.292,266.842 64.917 C 264.030 59.048,263.637 58.328,263.740 59.232 " stroke="none" fill="#66c6ed" fill-rule="evenodd"></path><path id="path2" d="M301.545 1.204 C 300.223 2.859,300.931 5.484,302.701 5.498 C 303.026 5.500,302.487 4.239,301.728 3.219 C 301.264 2.596,301.242 2.328,301.596 1.643 C 301.869 1.113,301.837 0.838,301.545 1.204 M304.579 1.758 C 304.824 2.175,305.150 2.799,305.304 3.144 L 305.585 3.771 306.168 2.566 C 306.761 1.338,306.587 1.183,305.970 2.391 L 305.632 3.055 304.979 2.028 C 304.223 0.839,303.921 0.635,304.579 1.758 M314.664 1.839 C 314.070 3.107,313.909 3.166,313.475 2.272 C 313.272 1.854,313.014 1.477,312.902 1.434 C 312.694 1.354,313.710 3.279,314.037 3.583 C 314.158 3.697,314.181 3.688,314.107 3.556 C 314.047 3.449,314.059 3.337,314.134 3.306 C 314.327 3.227,315.343 1.000,315.186 1.000 C 315.115 1.000,314.880 1.377,314.664 1.839 M317.911 1.458 C 318.181 2.158,318.201 2.687,317.966 2.963 C 317.330 3.710,316.503 5.500,316.795 5.498 C 318.324 5.486,319.211 3.567,318.414 1.994 C 318.014 1.206,317.672 0.841,317.911 1.458 M310.067 1.751 L 309.775 2.198 309.469 1.807 C 309.140 1.388,309.163 1.659,309.521 2.417 C 309.648 2.685,309.448 3.167,308.506 4.859 C 307.258 7.103,307.207 7.243,307.561 7.450 C 307.686 7.523,307.998 8.015,308.255 8.542 C 308.511 9.069,308.784 9.500,308.860 9.500 C 308.937 9.500,308.985 9.556,308.966 9.625 C 308.948 9.694,309.119 10.108,309.346 10.545 L 309.759 11.340 310.408 10.128 C 310.765 9.462,311.313 8.510,311.628 8.013 L 312.199 7.110 311.497 5.763 C 311.111 5.023,310.572 4.046,310.301 3.594 L 309.807 2.771 310.170 2.125 C 310.588 1.381,310.506 1.082,310.067 1.751 M310.851 6.768 L 311.377 7.785 310.581 9.245 C 310.040 10.237,309.745 10.633,309.659 10.478 C 309.589 10.353,309.230 9.693,308.862 9.013 L 308.191 7.775 308.702 6.763 C 308.983 6.206,309.329 5.575,309.469 5.360 L 309.725 4.969 310.025 5.360 C 310.190 5.574,310.561 6.208,310.851 6.768 M299.116 6.469 C 298.424 7.792,298.522 8.833,299.339 8.833 C 299.934 8.833,300.224 9.127,300.843 10.353 C 301.115 10.892,301.414 11.333,301.506 11.333 C 301.598 11.333,301.520 11.033,301.333 10.667 L 300.993 10.000 302.639 10.000 L 304.284 10.000 304.995 11.375 C 305.853 13.036,305.773 12.948,306.541 13.089 L 307.165 13.203 306.897 12.560 C 306.750 12.206,306.575 11.879,306.509 11.833 C 306.443 11.787,306.020 11.057,305.570 10.210 L 304.750 8.670 302.387 8.668 L 300.024 8.667 299.730 8.000 C 299.568 7.633,299.375 7.333,299.301 7.333 C 299.079 7.333,299.149 6.849,299.432 6.416 C 299.578 6.193,299.668 5.921,299.631 5.810 C 299.595 5.700,299.362 5.996,299.116 6.469 M319.833 5.875 C 319.833 6.000,319.943 6.249,320.078 6.426 C 320.439 6.903,320.390 7.190,319.819 7.967 L 319.304 8.667 317.027 8.670 L 314.750 8.674 313.625 10.750 C 312.439 12.939,312.355 13.167,312.739 13.167 C 313.410 13.167,313.784 12.799,314.500 11.432 L 315.250 10.002 316.888 10.001 L 318.527 10.000 317.748 11.429 C 317.320 12.215,317.014 12.902,317.068 12.957 C 317.198 13.087,317.153 13.158,318.170 11.250 C 319.145 9.421,319.648 8.833,320.241 8.833 C 320.924 8.833,321.038 7.838,320.495 6.611 C 320.147 5.823,319.833 5.475,319.833 5.875 M10.333 9.066 C 10.333 9.193,10.221 9.341,10.083 9.394 C 9.749 9.522,9.700 29.967,10.033 30.300 C 10.186 30.452,13.541 30.500,24.117 30.500 L 38.000 30.500 38.000 67.917 L 38.000 105.333 50.417 105.333 L 62.833 105.333 62.833 67.918 L 62.833 30.502 76.542 30.459 L 90.250 30.417 90.300 29.901 C 90.340 29.490,90.091 29.003,89.063 27.485 C 88.356 26.439,85.419 22.058,82.538 17.750 C 79.657 13.442,77.158 9.762,76.983 9.573 C 76.809 9.383,76.667 9.140,76.667 9.031 C 76.667 8.879,68.961 8.833,43.500 8.833 C 15.262 8.833,10.333 8.868,10.333 9.066 M297.541 9.375 C 296.476 10.710,296.747 12.808,298.019 13.062 C 298.313 13.121,298.595 13.127,298.647 13.075 C 298.762 12.961,297.908 11.385,297.464 10.893 C 297.145 10.539,297.146 10.528,297.491 9.851 C 297.838 9.170,297.859 8.977,297.541 9.375 M321.999 9.831 C 322.303 10.427,322.321 10.559,322.119 10.723 C 321.552 11.187,320.630 13.167,320.981 13.167 C 321.803 13.167,322.833 12.064,322.833 11.185 C 322.833 10.903,322.040 9.378,321.824 9.244 C 321.724 9.182,321.803 9.446,321.999 9.831 M100.250 9.920 C 99.700 10.044,99.063 10.151,98.833 10.158 C 96.932 10.218,92.539 13.645,91.490 15.886 C 88.361 22.573,93.747 29.137,102.624 29.456 C 105.706 29.567,105.500 29.774,105.500 26.569 C 105.500 23.581,105.606 23.745,103.570 23.576 C 95.920 22.941,95.769 16.148,103.395 15.682 L 105.261 15.567 108.130 13.337 C 111.158 10.984,111.454 10.597,110.762 9.905 C 110.430 9.573,101.735 9.585,100.250 9.920 M113.723 10.925 C 110.756 13.203,110.422 13.463,109.833 13.966 L 109.250 14.463 109.203 21.541 C 109.174 26.002,109.218 28.781,109.324 29.059 L 109.492 29.500 117.129 29.500 C 122.847 29.500,124.817 29.450,124.967 29.300 C 125.104 29.163,125.167 28.332,125.167 26.643 C 125.167 23.408,125.582 23.667,120.380 23.667 L 116.333 23.667 116.333 23.167 L 116.333 22.667 120.488 22.667 C 125.613 22.667,125.167 22.945,125.167 19.745 C 125.167 16.422,125.547 16.667,120.385 16.667 L 116.333 16.667 116.333 16.175 L 116.333 15.682 120.625 15.633 L 124.917 15.583 127.083 13.864 C 130.730 10.969,130.667 11.028,130.667 10.525 C 130.667 9.651,130.807 9.667,122.815 9.667 L 115.362 9.667 113.723 10.925 M132.601 10.931 C 131.693 11.624,130.853 12.280,130.732 12.387 C 130.612 12.495,130.178 12.842,129.767 13.158 C 129.062 13.700,129.013 13.790,128.914 14.741 C 128.702 16.776,128.896 28.925,129.145 29.225 C 129.522 29.678,135.582 29.635,135.827 29.178 C 135.935 28.977,136.000 27.053,136.000 24.080 L 136.000 19.305 136.687 19.861 C 137.571 20.577,141.570 23.699,144.849 26.235 C 146.261 27.327,147.812 28.553,148.296 28.960 C 149.154 29.682,150.094 29.962,150.453 29.602 C 150.796 29.260,150.599 10.193,150.250 9.929 C 149.778 9.572,144.390 9.550,143.907 9.903 C 143.611 10.119,143.576 10.418,143.500 13.345 L 143.417 16.550 142.094 15.483 C 141.367 14.897,140.392 14.123,139.927 13.763 C 139.463 13.404,138.258 12.463,137.250 11.673 C 134.180 9.266,134.675 9.345,132.601 10.931 M156.658 9.971 C 156.424 10.124,155.374 10.924,154.325 11.749 C 153.275 12.573,152.272 13.361,152.096 13.499 C 150.009 15.132,150.537 15.667,154.239 15.667 L 156.833 15.667 156.833 22.261 C 156.833 26.488,156.895 28.971,157.006 29.178 C 157.217 29.572,163.250 29.683,163.633 29.300 C 163.782 29.151,163.833 27.389,163.833 22.402 L 163.833 15.704 164.375 15.596 C 164.858 15.500,166.757 14.124,169.624 11.794 C 170.532 11.056,170.780 10.347,170.300 9.867 C 169.948 9.514,157.205 9.611,156.658 9.971 M173.218 10.530 C 170.105 12.899,168.362 14.371,168.271 14.710 C 168.100 15.349,168.154 28.611,168.329 29.072 L 168.492 29.500 176.129 29.500 C 181.847 29.500,183.817 29.450,183.967 29.300 C 184.329 28.938,184.238 24.283,183.862 23.942 C 183.596 23.702,183.037 23.667,179.445 23.667 L 175.333 23.667 175.333 23.167 L 175.333 22.667 179.488 22.667 C 184.618 22.667,184.167 22.954,184.167 19.692 C 184.167 16.400,184.586 16.667,179.415 16.667 L 175.333 16.667 175.333 16.175 L 175.333 15.682 179.625 15.633 L 183.917 15.583 185.750 14.141 C 189.346 11.310,189.580 11.098,189.637 10.609 C 189.750 9.641,189.966 9.667,181.823 9.667 L 174.353 9.667 173.218 10.530 M193.315 10.139 C 192.430 10.793,191.429 11.568,191.333 11.673 C 191.287 11.724,190.800 12.110,190.250 12.531 C 189.700 12.952,189.088 13.436,188.889 13.607 C 188.691 13.777,188.372 14.047,188.181 14.207 C 187.761 14.557,187.621 28.887,188.033 29.300 C 188.334 29.600,194.392 29.581,194.643 29.278 C 194.762 29.135,194.843 27.706,194.872 25.208 L 194.917 21.359 198.250 24.102 C 207.033 31.332,206.333 31.189,206.333 25.756 L 206.333 22.372 205.697 21.811 C 205.348 21.502,204.843 21.093,204.575 20.901 L 204.089 20.552 204.854 19.701 C 207.050 17.258,206.096 12.797,202.970 10.898 C 200.909 9.646,194.648 9.154,193.315 10.139 M301.837 12.013 C 302.000 12.583,302.291 13.000,302.524 13.000 C 302.694 13.000,302.089 11.741,301.846 11.591 C 301.747 11.530,301.744 11.688,301.837 12.013 M294.903 13.467 C 294.295 13.881,293.990 15.571,294.366 16.450 C 294.774 17.409,294.949 17.500,296.373 17.500 L 297.695 17.500 297.264 18.271 C 296.421 19.779,297.137 21.833,298.506 21.833 C 298.954 21.833,298.992 21.870,298.839 22.156 C 298.554 22.688,298.642 23.463,299.086 24.339 L 299.506 25.167 300.685 25.167 L 301.865 25.167 301.349 26.081 C 300.149 28.207,300.936 29.829,303.167 29.829 C 304.287 29.828,304.366 29.780,305.055 28.688 L 305.605 27.815 306.129 28.657 L 306.653 29.500 307.834 29.500 C 308.869 29.500,309.062 29.450,309.388 29.099 L 309.760 28.697 310.124 29.106 C 310.456 29.479,310.593 29.511,311.687 29.466 L 312.885 29.417 313.427 28.630 C 314.022 27.765,314.053 27.773,314.639 28.938 C 315.049 29.751,315.220 29.833,316.500 29.833 C 318.319 29.833,319.353 28.296,318.550 26.783 L 318.267 26.250 318.163 26.833 C 317.927 28.160,317.595 28.500,316.537 28.499 L 315.583 28.498 314.833 27.083 C 313.902 25.327,313.978 25.320,312.990 27.250 C 312.320 28.558,310.879 28.573,310.197 27.279 L 309.811 26.546 310.562 25.065 C 310.975 24.250,311.505 23.325,311.740 23.009 C 311.975 22.694,312.167 22.383,312.167 22.319 C 312.167 22.167,309.797 17.979,309.744 18.038 C 309.722 18.063,309.170 19.052,308.518 20.236 C 307.260 22.518,307.258 22.530,308.016 23.167 C 308.071 23.212,308.165 23.451,308.225 23.697 C 308.285 23.942,308.446 24.256,308.584 24.393 C 308.721 24.530,308.833 24.723,308.833 24.821 C 308.833 24.920,308.909 25.000,309.002 25.000 C 309.095 25.000,308.943 24.547,308.664 23.994 L 308.156 22.988 308.925 21.577 C 309.838 19.902,309.678 19.953,310.355 21.125 C 311.502 23.110,311.509 22.988,310.118 25.312 L 309.782 25.873 309.476 25.478 C 309.175 25.090,309.174 25.096,309.424 25.845 C 309.844 27.106,309.158 28.167,307.923 28.167 L 307.041 28.167 306.441 27.042 C 305.521 25.318,305.595 25.356,305.094 26.357 C 303.964 28.614,304.072 28.500,303.082 28.500 C 301.083 28.500,300.881 26.806,302.602 24.476 L 303.015 23.917 301.466 23.864 L 299.917 23.810 299.542 23.014 C 299.009 21.883,299.470 20.803,300.574 20.596 C 301.094 20.499,302.667 18.300,302.667 17.670 C 302.667 17.566,303.308 17.500,304.333 17.500 C 305.250 17.500,306.000 17.529,306.000 17.565 C 306.000 17.601,305.655 18.244,305.234 18.993 C 304.812 19.743,304.507 20.396,304.555 20.444 C 304.604 20.493,304.800 20.225,304.992 19.849 C 305.183 19.474,305.414 19.167,305.503 19.167 C 305.593 19.167,305.667 19.050,305.667 18.908 C 305.667 18.547,306.128 17.690,306.691 17.004 C 307.380 16.164,307.387 16.167,304.767 16.167 L 302.368 16.167 301.216 18.292 L 300.064 20.417 299.116 20.467 C 298.178 20.516,298.167 20.511,297.887 19.925 C 297.732 19.600,297.552 19.333,297.487 19.333 C 297.025 19.333,297.432 18.073,298.124 17.359 C 298.243 17.236,298.454 16.917,298.591 16.651 L 298.842 16.167 297.091 16.167 L 295.340 16.167 295.003 15.507 C 294.597 14.709,294.574 14.116,294.937 13.754 C 295.220 13.471,295.196 13.268,294.903 13.467 M324.505 13.615 C 324.502 13.816,324.575 14.027,324.667 14.083 C 324.928 14.245,324.863 14.788,324.497 15.507 L 324.160 16.167 322.413 16.167 C 320.494 16.167,320.449 16.196,321.152 16.984 C 321.419 17.283,321.734 17.765,321.851 18.055 C 321.968 18.346,322.137 18.633,322.226 18.693 C 322.323 18.759,322.287 18.904,322.136 19.054 C 321.998 19.192,321.788 19.540,321.670 19.826 C 321.457 20.339,321.435 20.347,320.443 20.299 L 319.432 20.250 318.807 19.083 C 318.463 18.442,317.992 17.523,317.760 17.042 L 317.338 16.167 314.831 16.167 L 312.325 16.167 312.575 16.651 C 312.713 16.917,312.925 17.236,313.046 17.359 C 313.167 17.482,313.626 18.245,314.065 19.054 C 314.505 19.863,314.902 20.487,314.948 20.440 C 314.995 20.394,314.688 19.743,314.266 18.993 C 313.845 18.244,313.500 17.601,313.500 17.565 C 313.500 17.529,314.252 17.500,315.171 17.500 C 316.840 17.500,316.842 17.500,317.014 17.958 C 317.468 19.160,318.401 20.488,318.863 20.590 C 319.995 20.838,320.502 21.977,319.970 23.073 L 319.606 23.822 318.060 23.869 L 316.514 23.917 317.004 24.667 C 317.273 25.079,317.570 25.507,317.664 25.618 C 317.757 25.729,317.833 25.897,317.833 25.993 C 317.833 26.089,317.911 26.167,318.006 26.167 C 318.125 26.167,318.125 26.067,318.006 25.844 C 317.698 25.270,317.814 25.183,318.958 25.133 L 320.083 25.083 320.458 24.340 C 320.860 23.543,320.940 22.678,320.661 22.156 C 320.514 21.881,320.544 21.833,320.869 21.831 C 322.223 21.823,323.233 19.950,322.519 18.770 C 321.786 17.557,321.821 17.500,323.302 17.500 C 324.793 17.500,324.823 17.480,325.263 16.231 C 325.582 15.323,325.413 14.442,324.752 13.569 C 324.518 13.259,324.510 13.261,324.505 13.615 M198.292 15.998 C 198.794 16.304,198.833 16.393,198.833 17.218 C 198.833 18.593,198.434 18.882,196.411 18.971 L 194.833 19.040 194.833 17.353 L 194.833 15.667 196.292 15.667 C 197.451 15.668,197.861 15.736,198.292 15.998 M11.000 32.500 C 11.000 32.592,10.850 32.817,10.667 33.000 C 10.328 33.339,10.136 82.704,10.470 83.530 C 10.563 83.760,14.440 87.889,17.250 90.751 C 17.617 91.125,19.192 92.771,20.750 94.410 C 24.341 98.188,24.168 98.006,26.833 100.779 C 28.071 102.066,29.555 103.618,30.130 104.226 L 31.178 105.333 33.505 105.333 L 35.833 105.333 35.833 69.347 C 35.833 33.271,35.828 32.833,35.399 32.833 C 35.271 32.833,35.167 32.721,35.167 32.583 C 35.167 32.363,33.713 32.333,23.083 32.333 C 15.139 32.333,11.000 32.390,11.000 32.500 M66.996 33.261 C 66.892 33.534,66.833 46.639,66.833 69.511 L 66.833 105.333 78.667 105.333 L 90.500 105.333 90.500 102.917 L 90.500 100.500 100.792 100.507 L 111.083 100.514 111.419 101.049 C 111.604 101.343,112.278 102.427,112.917 103.458 L 114.079 105.333 125.798 105.333 C 136.260 105.333,137.501 105.306,137.374 105.079 C 137.248 104.854,135.918 104.825,126.116 104.831 C 115.950 104.837,115.000 104.815,115.000 104.566 C 115.000 104.417,114.738 103.937,114.417 103.500 C 114.096 103.063,113.833 102.655,113.833 102.595 C 113.833 102.534,113.533 102.032,113.167 101.480 C 112.800 100.928,112.500 100.420,112.500 100.352 C 112.500 100.283,112.259 99.914,111.964 99.530 L 111.429 98.833 100.631 98.833 L 89.833 98.833 89.833 101.833 L 89.833 104.833 78.667 104.833 L 67.500 104.833 67.500 68.833 C 67.500 33.438,67.479 31.989,66.996 33.261 M114.444 32.944 C 114.203 33.186,114.333 68.384,114.577 68.917 C 114.773 69.344,114.808 66.776,114.820 51.125 C 114.827 41.065,114.771 32.833,114.694 32.833 C 114.618 32.833,114.506 32.883,114.444 32.944 M250.853 33.375 C 250.758 33.673,250.597 37.064,250.495 40.910 C 250.393 44.756,250.256 48.206,250.190 48.577 C 250.079 49.203,250.261 50.150,250.547 50.436 C 250.613 50.502,250.668 50.187,250.669 49.736 C 250.670 49.285,250.819 45.804,251.000 42.000 C 251.438 32.771,251.419 31.604,250.853 33.375 M323.356 38.542 C 323.369 41.681,323.407 44.063,323.441 43.833 C 323.557 43.068,323.863 42.092,324.267 41.203 C 324.742 40.158,324.788 39.669,324.333 40.500 L 324.014 41.083 324.007 37.222 C 324.000 33.237,323.959 32.833,323.566 32.833 C 323.371 32.833,323.337 33.763,323.356 38.542 M241.500 33.328 C 241.500 33.552,242.138 34.667,242.267 34.667 C 242.335 34.667,241.705 33.337,241.563 33.181 C 241.528 33.142,241.500 33.209,241.500 33.328 M242.833 35.870 C 242.833 36.013,242.987 36.307,243.175 36.523 L 243.516 36.917 243.237 36.333 C 242.890 35.609,242.833 35.544,242.833 35.870 M94.479 36.750 C 94.569 36.933,94.764 37.233,94.914 37.417 L 95.185 37.750 95.021 37.417 C 94.931 37.233,94.736 36.933,94.586 36.750 L 94.315 36.417 94.479 36.750 M244.031 38.167 C 244.222 38.625,244.444 39.000,244.525 39.000 C 244.606 39.000,244.482 38.625,244.250 38.167 C 244.018 37.708,243.796 37.333,243.756 37.333 C 243.717 37.333,243.841 37.708,244.031 38.167 M245.195 40.292 C 245.383 40.727,245.649 41.196,245.785 41.333 C 245.922 41.471,245.800 41.115,245.514 40.542 C 244.903 39.314,244.705 39.159,245.195 40.292 M246.501 42.792 C 246.501 42.967,247.143 44.000,247.251 44.000 C 247.300 44.000,247.187 43.700,247.000 43.333 C 246.679 42.704,246.499 42.509,246.501 42.792 M247.833 45.272 C 247.833 45.417,248.510 46.500,248.600 46.500 C 248.641 46.500,248.520 46.200,248.333 45.833 C 248.020 45.220,247.833 45.010,247.833 45.272 M249.003 47.387 C 248.999 47.554,249.836 49.000,249.936 49.000 C 250.011 49.000,249.466 47.926,249.176 47.500 C 249.082 47.362,249.004 47.312,249.003 47.387 M385.333 50.630 C 385.333 50.789,378.615 50.833,354.167 50.833 L 323.000 50.833 323.000 54.833 C 323.000 58.278,323.035 58.833,323.250 58.833 C 323.463 58.833,323.500 58.371,323.500 55.668 L 323.500 52.503 354.569 52.460 C 371.658 52.436,385.687 52.368,385.747 52.309 C 385.960 52.095,385.877 51.202,385.608 50.818 C 385.457 50.602,385.333 50.518,385.333 50.630 M147.042 50.958 L 135.333 51.002 135.333 76.564 C 135.333 99.082,135.363 102.151,135.583 102.333 C 135.805 102.518,135.833 99.742,135.833 77.520 L 135.833 52.500 215.542 52.500 L 295.250 52.500 295.194 78.917 L 295.138 105.333 309.569 105.333 L 324.000 105.333 324.000 100.962 L 324.000 96.591 324.746 97.900 C 326.443 100.878,329.012 103.702,331.198 104.991 C 331.778 105.334,331.832 105.334,353.903 105.292 L 376.027 105.250 377.739 102.167 C 386.874 85.718,386.812 85.840,386.103 85.568 C 385.758 85.435,385.401 85.728,384.980 86.489 C 384.799 86.816,384.543 87.271,384.412 87.500 C 383.506 89.083,381.667 92.501,381.667 92.602 C 381.667 92.669,381.562 92.842,381.434 92.987 C 381.306 93.132,380.917 93.813,380.569 94.500 C 380.222 95.188,379.839 95.849,379.719 95.970 C 379.598 96.091,379.500 96.330,379.500 96.500 C 379.500 96.670,379.395 96.915,379.266 97.044 C 379.137 97.173,378.706 97.895,378.307 98.650 C 377.423 100.327,377.052 101.005,376.330 102.271 C 376.022 102.809,375.591 103.606,375.371 104.042 L 374.970 104.833 354.610 104.831 L 334.250 104.829 333.000 104.148 C 328.843 101.885,324.567 96.653,323.583 92.623 C 323.398 91.865,323.368 92.608,323.352 98.293 L 323.333 104.835 309.625 104.793 L 295.917 104.750 295.917 77.903 L 295.917 51.055 244.833 50.944 C 197.532 50.842,177.373 50.844,147.042 50.958 M139.200 58.533 C 138.785 58.948,138.780 58.932,143.015 70.750 C 145.589 77.934,148.305 85.546,148.754 86.833 C 149.614 89.304,154.993 104.366,155.255 105.042 C 155.366 105.326,178.500 105.528,178.500 105.245 C 178.500 105.196,178.380 104.877,178.234 104.536 C 177.974 103.931,175.962 98.987,174.964 96.500 C 174.689 95.813,174.330 94.950,174.167 94.583 C 174.005 94.217,173.335 92.576,172.680 90.937 C 171.382 87.692,171.017 86.913,171.007 87.365 C 171.003 87.520,171.300 88.293,171.667 89.083 C 172.033 89.873,172.333 90.594,172.333 90.686 C 172.333 90.777,172.475 91.166,172.648 91.551 C 172.821 91.935,173.121 92.602,173.314 93.033 C 173.508 93.463,173.667 93.861,173.667 93.917 C 173.667 93.973,173.938 94.671,174.270 95.468 C 174.602 96.265,175.156 97.592,175.500 98.417 C 175.844 99.242,176.398 100.569,176.730 101.366 C 177.062 102.163,177.333 102.897,177.333 102.997 C 177.333 103.098,177.483 103.474,177.667 103.833 C 177.850 104.193,178.000 104.565,178.000 104.660 C 178.000 104.778,174.588 104.833,167.276 104.833 C 155.006 104.833,156.333 105.033,155.622 103.083 C 154.854 100.979,153.747 97.869,152.951 95.583 C 152.359 93.880,151.820 92.440,151.572 91.891 C 151.441 91.603,151.333 91.251,151.333 91.109 C 151.333 90.968,151.064 90.192,150.735 89.384 C 150.407 88.577,150.038 87.579,149.915 87.167 C 149.793 86.754,149.269 85.254,148.751 83.833 C 148.233 82.412,147.670 80.837,147.499 80.333 C 147.329 79.829,146.838 78.442,146.409 77.250 C 145.981 76.058,145.311 74.174,144.921 73.063 C 144.531 71.952,144.161 70.959,144.098 70.857 C 144.034 70.754,143.871 70.243,143.735 69.720 C 143.599 69.197,143.425 68.690,143.348 68.593 C 143.271 68.496,142.938 67.629,142.609 66.667 C 141.077 62.185,139.642 58.333,139.504 58.333 C 139.447 58.333,139.310 58.423,139.200 58.533 M203.580 59.190 C 203.347 60.886,203.680 84.167,203.937 84.167 C 204.284 84.167,204.280 58.801,203.933 58.514 C 203.740 58.353,203.679 58.470,203.580 59.190 M263.218 58.875 C 263.144 58.990,263.064 69.490,263.039 82.208 L 262.995 105.333 275.248 105.333 L 287.500 105.333 287.500 82.200 C 287.500 58.968,287.493 58.667,286.967 58.667 C 286.893 58.667,286.833 69.007,286.833 81.645 L 286.833 104.623 286.208 104.726 C 285.865 104.783,280.652 104.830,274.625 104.831 L 263.667 104.833 263.667 81.750 C 263.667 67.437,263.607 58.667,263.510 58.667 C 263.424 58.667,263.292 58.760,263.218 58.875 M347.464 59.951 C 347.199 62.199,347.556 85.000,347.856 85.000 C 348.352 85.000,348.224 59.545,347.727 59.381 C 347.616 59.344,347.508 59.579,347.464 59.951 M111.016 63.167 C 111.498 63.915,111.500 63.917,111.499 63.736 C 111.499 63.652,111.305 63.358,111.069 63.083 L 110.639 62.583 111.016 63.167 M89.838 71.542 C 89.833 78.707,89.839 78.833,90.164 78.833 C 90.487 78.833,90.497 78.695,90.539 73.309 L 90.583 67.784 92.042 70.101 C 92.845 71.374,94.387 73.842,95.469 75.583 L 97.437 78.750 98.135 78.801 C 99.006 78.865,99.004 78.770,98.109 77.464 C 97.711 76.882,97.355 76.333,97.318 76.245 C 97.184 75.926,95.759 73.582,95.649 73.500 C 95.587 73.454,95.255 72.929,94.912 72.333 C 94.568 71.737,94.161 71.100,94.007 70.917 C 93.852 70.733,93.395 70.021,92.990 69.333 C 92.585 68.646,92.178 67.966,92.085 67.822 C 91.926 67.575,91.670 67.166,90.379 65.107 L 89.842 64.250 89.838 71.542 M113.173 66.583 C 113.174 66.675,113.327 66.938,113.515 67.167 C 113.741 67.443,113.798 67.471,113.683 67.250 C 113.402 66.706,113.172 66.405,113.173 66.583 M177.833 73.925 C 175.205 76.634,172.637 77.835,169.208 77.960 C 168.085 78.001,167.167 78.094,167.167 78.167 C 167.167 78.241,167.467 78.935,167.833 79.710 C 168.200 80.485,168.500 81.205,168.500 81.310 C 168.500 81.414,168.800 82.166,169.167 82.980 C 169.533 83.794,169.833 84.541,169.833 84.640 C 169.833 84.900,170.867 87.022,170.952 86.937 C 170.992 86.897,170.409 85.377,169.658 83.557 C 168.907 81.738,168.255 80.119,168.210 79.958 C 168.136 79.697,168.275 79.667,169.546 79.667 C 172.116 79.667,175.116 78.400,177.368 76.365 L 178.000 75.795 178.001 81.939 C 178.001 88.528,178.092 89.592,178.914 92.638 C 180.289 97.730,184.231 102.830,188.452 104.977 L 189.153 105.333 215.376 105.333 L 241.599 105.333 242.302 103.958 C 242.689 103.202,243.605 101.458,244.338 100.083 C 245.071 98.708,245.891 97.133,246.160 96.583 C 246.429 96.033,246.760 95.396,246.896 95.167 C 248.698 92.129,251.667 86.145,251.667 85.551 C 251.667 84.652,251.295 84.498,250.864 85.217 C 250.457 85.895,248.215 90.094,246.974 92.500 C 246.620 93.188,245.990 94.388,245.575 95.167 C 245.160 95.946,244.448 97.296,243.993 98.167 C 243.538 99.037,242.577 100.875,241.858 102.250 L 240.549 104.750 216.400 104.794 L 192.250 104.838 190.917 104.313 C 189.186 103.630,188.116 103.091,187.844 102.763 C 187.724 102.618,187.541 102.500,187.438 102.500 C 186.534 102.500,182.509 97.958,181.198 95.459 C 179.018 91.304,178.803 90.034,178.680 80.618 L 178.583 73.152 177.833 73.925 " stroke="none" fill="#8b1b13" fill-rule="evenodd"></path></g></svg>