<svg id="svg" version="1.1" xmlns="http://www.w3.org/2000/svg" xmlns:xlink="http://www.w3.org/1999/xlink" width="400" height="110.37527593818984" viewBox="0, 0, 400,110.37527593818984"><g id="svgg"><path id="path0" d="M301.663 1.625 C 301.369 2.287,301.345 2.471,301.520 2.750 C 301.635 2.933,301.939 3.515,302.197 4.042 C 302.454 4.569,302.732 5.000,302.814 5.000 C 302.897 5.000,303.005 5.107,303.055 5.237 C 303.131 5.433,302.869 5.469,301.538 5.446 L 299.930 5.417 299.768 5.870 C 299.599 6.343,300.032 7.103,300.357 6.902 C 300.437 6.853,300.554 6.948,300.618 7.114 C 300.773 7.520,301.350 7.988,301.702 7.994 C 301.860 7.998,302.069 8.150,302.167 8.333 C 302.321 8.621,302.516 8.667,303.591 8.667 L 304.836 8.667 305.098 9.320 C 305.242 9.680,305.466 10.015,305.596 10.065 C 305.727 10.115,305.833 10.291,305.833 10.456 C 305.833 10.621,306.021 11.032,306.250 11.369 C 306.479 11.706,306.667 12.027,306.667 12.082 C 306.667 12.395,309.964 15.219,310.786 15.611 C 311.080 15.751,311.364 16.000,311.416 16.165 C 311.468 16.329,311.751 16.580,312.043 16.722 C 312.614 16.998,312.853 16.953,312.531 16.631 C 312.044 16.144,312.346 16.084,314.875 16.167 C 316.273 16.212,317.392 16.317,317.361 16.398 C 317.330 16.479,317.377 16.592,317.465 16.648 C 317.666 16.776,318.333 18.016,318.333 18.262 C 318.333 19.618,320.759 20.918,321.555 19.988 C 322.208 19.225,321.935 17.167,321.180 17.167 C 321.099 17.167,320.954 16.942,320.858 16.667 L 320.684 16.167 322.340 16.167 L 323.995 16.167 324.444 15.489 C 324.847 14.880,324.872 14.756,324.696 14.269 C 324.588 13.970,324.500 13.602,324.500 13.450 C 324.500 13.047,323.836 12.939,322.149 13.067 C 320.569 13.186,320.467 13.132,321.000 12.455 C 321.183 12.221,321.333 11.952,321.333 11.855 C 321.333 11.759,321.496 11.528,321.694 11.343 C 322.125 10.942,322.146 10.331,321.759 9.440 L 321.480 8.797 320.546 8.914 C 319.351 9.063,319.308 9.114,317.632 12.354 L 317.319 12.958 314.868 13.038 C 312.071 13.128,312.161 13.149,312.619 12.528 C 312.810 12.271,313.201 11.556,313.490 10.939 C 313.778 10.322,314.123 9.776,314.256 9.725 C 314.389 9.674,314.470 9.583,314.435 9.524 C 314.044 8.855,314.624 8.667,317.078 8.667 C 318.613 8.667,319.500 8.604,319.500 8.497 C 319.500 8.403,319.689 8.028,319.919 7.663 L 320.338 6.999 319.904 6.142 L 319.470 5.286 317.991 5.391 C 316.723 5.481,316.526 5.460,316.607 5.248 C 316.660 5.111,316.757 5.000,316.823 5.000 C 316.890 5.000,316.944 4.900,316.944 4.779 C 316.944 4.657,317.187 4.204,317.484 3.773 C 318.145 2.813,318.221 2.272,317.809 1.458 L 317.493 0.833 316.413 0.833 C 315.484 0.833,315.333 0.875,315.333 1.133 C 315.333 1.474,314.967 2.330,314.820 2.332 C 314.767 2.333,314.550 2.703,314.339 3.155 L 313.954 3.977 313.570 3.197 C 313.359 2.768,313.061 2.135,312.907 1.792 C 312.631 1.172,312.620 1.167,311.654 1.167 L 310.680 1.167 310.271 2.020 L 309.863 2.874 310.447 3.687 C 310.768 4.134,310.985 4.500,310.928 4.500 C 310.798 4.500,311.265 5.423,311.726 6.078 C 312.157 6.690,312.304 8.193,311.893 7.782 C 311.783 7.672,310.833 9.443,310.833 9.759 C 310.833 9.882,310.722 10.046,310.587 10.121 C 310.451 10.197,310.195 10.557,310.018 10.921 L 309.695 11.583 309.579 11.125 C 309.516 10.873,309.407 10.667,309.337 10.667 C 309.268 10.667,309.051 10.310,308.856 9.875 C 308.661 9.440,308.273 8.708,307.995 8.250 C 307.264 7.045,307.266 7.058,307.649 6.409 C 307.842 6.082,308.000 5.706,308.000 5.574 C 308.000 5.442,308.079 5.333,308.177 5.333 C 308.274 5.333,308.307 5.258,308.250 5.167 C 308.193 5.075,308.221 5.000,308.312 5.000 C 308.659 5.000,309.657 2.699,309.402 2.487 C 309.272 2.380,309.167 2.158,309.167 1.993 C 309.167 1.272,309.003 1.167,307.889 1.167 C 307.298 1.167,306.853 1.230,306.901 1.308 C 306.949 1.386,306.838 1.611,306.654 1.808 C 306.471 2.005,306.365 2.167,306.421 2.167 C 306.476 2.167,306.312 2.551,306.056 3.021 C 305.607 3.846,305.585 3.861,305.419 3.479 C 305.325 3.261,305.045 2.771,304.797 2.389 C 304.549 2.007,304.298 1.501,304.239 1.264 C 304.137 0.858,304.071 0.833,303.073 0.833 L 302.016 0.833 301.663 1.625 M140.237 34.935 C 141.940 36.366,143.333 37.603,143.333 37.685 C 143.333 37.767,143.419 37.833,143.524 37.833 C 143.694 37.833,144.257 38.302,145.917 39.825 C 146.192 40.077,147.654 41.323,149.167 42.592 C 152.826 45.665,152.647 45.509,153.246 46.125 C 153.536 46.423,153.838 46.667,153.917 46.667 C 153.995 46.667,154.293 46.910,154.579 47.208 C 154.865 47.506,155.343 47.953,155.642 48.202 C 157.832 50.021,158.667 50.757,158.667 50.870 C 158.667 50.941,174.229 51.000,193.250 51.000 C 212.271 51.000,227.833 50.955,227.833 50.899 C 227.833 50.843,227.359 50.187,226.779 49.441 C 226.199 48.694,225.211 47.408,224.584 46.583 C 223.956 45.758,223.137 44.741,222.763 44.323 C 222.389 43.906,221.558 42.865,220.917 42.010 C 220.275 41.156,219.262 39.860,218.667 39.129 C 217.359 37.526,216.344 36.231,214.872 34.292 C 214.264 33.490,213.706 32.833,213.633 32.833 C 213.560 32.833,213.500 32.721,213.500 32.583 C 213.500 32.363,211.931 32.333,200.375 32.335 L 187.250 32.336 186.475 32.793 C 184.824 33.767,183.437 35.074,182.296 36.734 L 181.619 37.718 181.366 37.234 C 181.226 36.968,181.131 36.721,181.154 36.685 C 181.177 36.650,181.132 36.575,181.055 36.519 C 180.978 36.463,180.653 36.048,180.332 35.598 C 180.012 35.148,179.210 34.229,178.549 33.556 L 177.348 32.333 157.245 32.333 L 137.141 32.333 140.237 34.935 M274.475 33.293 C 274.141 33.819,273.703 34.579,273.502 34.982 C 273.301 35.384,273.066 35.797,272.980 35.898 C 272.753 36.169,270.000 41.026,270.000 41.157 C 270.000 41.219,269.806 41.527,269.570 41.843 C 269.333 42.158,268.881 42.904,268.564 43.500 C 268.247 44.096,267.831 44.846,267.639 45.167 C 266.770 46.616,265.492 48.846,264.941 49.875 L 264.338 51.000 280.086 51.000 L 295.833 51.000 295.833 77.917 L 295.833 104.833 296.750 104.833 C 297.331 104.833,297.667 104.763,297.667 104.641 C 297.667 104.536,297.898 104.142,298.182 103.766 C 298.668 103.122,299.540 101.810,302.230 97.678 C 302.861 96.709,303.427 95.879,303.488 95.833 C 303.550 95.787,304.107 94.962,304.727 94.000 C 305.347 93.037,305.992 92.063,306.160 91.833 C 306.542 91.314,310.734 85.006,312.083 82.922 C 312.633 82.073,313.219 81.197,313.386 80.977 C 313.714 80.543,315.406 77.992,317.230 75.183 C 317.861 74.211,318.431 73.379,318.497 73.333 C 318.564 73.287,319.123 72.462,319.741 71.500 C 320.359 70.537,321.221 69.225,321.657 68.583 C 322.257 67.701,322.400 67.376,322.245 67.250 C 322.133 67.158,321.226 65.969,320.229 64.608 C 319.232 63.246,317.817 61.327,317.083 60.342 C 316.350 59.357,315.037 57.592,314.167 56.420 C 313.296 55.248,312.053 53.605,311.405 52.769 C 310.758 51.934,309.864 50.725,309.419 50.083 C 308.974 49.442,308.410 48.692,308.166 48.417 C 307.922 48.142,307.022 46.942,306.167 45.750 C 305.312 44.558,304.528 43.508,304.426 43.417 C 304.323 43.325,303.422 42.125,302.425 40.750 C 301.427 39.375,300.564 38.212,300.507 38.167 C 300.450 38.121,299.697 37.108,298.834 35.917 C 297.971 34.725,296.999 33.434,296.674 33.047 L 296.083 32.344 285.583 32.340 L 275.083 32.336 274.475 33.293 M114.796 50.917 C 114.760 65.306,114.707 69.154,114.551 68.805 C 114.441 68.560,114.085 67.988,113.759 67.535 C 113.433 67.081,113.167 66.653,113.167 66.583 C 113.167 66.514,112.904 66.091,112.583 65.645 C 112.263 65.198,112.000 64.773,112.000 64.699 C 112.000 64.626,111.783 64.270,111.518 63.908 C 111.253 63.546,110.830 62.879,110.579 62.427 C 110.327 61.974,109.981 61.453,109.810 61.270 C 109.640 61.087,109.500 60.808,109.500 60.649 C 109.500 60.491,109.441 60.336,109.368 60.306 C 109.194 60.232,108.167 58.692,108.167 58.504 C 108.167 58.424,107.992 58.147,107.779 57.888 C 107.566 57.629,107.157 57.000,106.869 56.492 C 106.582 55.983,106.194 55.390,106.007 55.175 C 105.820 54.959,105.667 54.687,105.667 54.570 C 105.667 54.453,105.573 54.258,105.458 54.137 C 105.194 53.858,104.333 52.539,104.333 52.412 C 104.333 52.360,104.045 51.889,103.693 51.367 C 102.302 49.300,101.833 48.552,101.833 48.394 C 101.833 48.304,101.697 48.083,101.531 47.905 C 101.226 47.578,100.015 45.642,99.444 44.572 C 99.059 43.849,98.833 43.976,98.833 44.915 C 98.833 45.316,98.651 46.643,98.429 47.864 C 98.207 49.085,97.941 50.683,97.838 51.417 C 97.736 52.150,97.359 54.587,97.001 56.833 C 96.643 59.079,96.277 61.479,96.189 62.167 C 96.101 62.854,95.838 64.579,95.604 66.000 C 95.370 67.421,95.090 69.258,94.980 70.083 C 94.871 70.908,94.722 71.661,94.649 71.757 C 94.575 71.855,94.757 72.291,95.066 72.757 C 96.195 74.454,96.920 75.596,97.128 76.000 C 97.246 76.229,97.673 76.942,98.078 77.583 L 98.814 78.750 96.250 78.796 C 93.991 78.836,93.676 78.876,93.601 79.129 C 93.476 79.552,92.724 84.204,92.531 85.750 C 92.439 86.483,92.137 88.471,91.858 90.167 C 91.580 91.862,91.191 94.300,90.994 95.583 C 90.798 96.867,90.601 98.104,90.558 98.333 C 90.454 98.881,90.752 98.557,94.981 93.529 C 96.779 91.390,98.962 88.794,99.833 87.758 C 100.704 86.723,102.092 85.060,102.917 84.063 C 103.742 83.066,104.577 82.100,104.774 81.917 C 104.970 81.733,106.355 80.083,107.851 78.250 C 109.347 76.417,110.783 74.692,111.042 74.417 C 111.749 73.666,111.971 73.407,113.592 71.441 L 115.083 69.632 115.131 70.358 C 115.158 70.757,114.876 74.182,114.506 77.968 C 114.136 81.755,113.833 85.236,113.833 85.703 C 113.833 86.171,113.528 89.698,113.155 93.542 L 112.476 100.531 112.905 101.179 C 113.140 101.535,113.333 101.877,113.333 101.939 C 113.333 102.001,113.515 102.290,113.737 102.581 C 114.299 103.318,114.833 104.296,114.833 104.588 C 114.833 104.801,116.278 104.833,125.917 104.833 C 133.657 104.833,137.000 104.780,137.000 104.656 C 137.000 104.558,136.820 104.239,136.600 103.947 C 136.380 103.655,136.005 103.065,135.766 102.635 L 135.333 101.853 135.333 84.843 C 135.333 75.111,135.270 67.833,135.186 67.833 C 135.105 67.833,134.996 67.702,134.944 67.542 C 134.892 67.381,134.564 66.755,134.216 66.150 C 133.868 65.545,133.292 64.532,132.935 63.900 C 132.579 63.267,132.120 62.487,131.915 62.167 C 131.711 61.846,131.320 61.171,131.047 60.667 C 130.422 59.513,128.723 56.530,128.028 55.368 C 127.737 54.882,127.500 54.446,127.500 54.398 C 127.500 54.349,127.289 53.997,127.031 53.613 C 126.772 53.230,126.351 52.504,126.095 52.000 C 125.838 51.496,125.546 50.982,125.446 50.858 C 125.283 50.656,124.183 48.714,122.788 46.167 C 122.511 45.663,122.046 44.875,121.753 44.417 C 121.460 43.958,121.176 43.458,121.121 43.304 C 121.065 43.151,120.813 42.701,120.559 42.304 C 120.306 41.908,119.979 41.358,119.833 41.083 C 119.347 40.167,117.288 36.589,117.004 36.167 C 116.850 35.938,116.447 35.225,116.108 34.583 C 114.707 31.928,114.848 30.179,114.796 50.917 M69.740 38.721 C 69.996 39.058,70.240 39.333,70.281 39.333 C 70.397 39.333,69.675 38.358,69.462 38.227 C 69.358 38.162,69.483 38.385,69.740 38.721 M70.833 40.167 C 71.124 40.533,71.399 40.833,71.445 40.833 C 71.491 40.833,71.290 40.533,71.000 40.167 C 70.710 39.800,70.434 39.500,70.389 39.500 C 70.343 39.500,70.543 39.800,70.833 40.167 M74.496 44.828 C 74.690 45.101,74.934 45.376,75.038 45.440 C 75.142 45.504,75.017 45.282,74.760 44.945 C 74.203 44.215,73.993 44.122,74.496 44.828 M78.833 50.333 C 79.124 50.700,79.399 51.000,79.445 51.000 C 79.491 51.000,79.290 50.700,79.000 50.333 C 78.710 49.967,78.434 49.667,78.389 49.667 C 78.343 49.667,78.543 49.967,78.833 50.333 M79.830 51.662 C 80.024 51.934,80.267 52.209,80.371 52.273 C 80.475 52.338,80.350 52.115,80.094 51.779 C 79.537 51.048,79.327 50.955,79.830 51.662 M82.500 55.000 C 82.790 55.367,83.066 55.667,83.111 55.667 C 83.157 55.667,82.957 55.367,82.667 55.000 C 82.376 54.633,82.101 54.333,82.055 54.333 C 82.009 54.333,82.210 54.633,82.500 55.000 M83.496 56.328 C 83.690 56.601,83.934 56.876,84.038 56.940 C 84.142 57.004,84.017 56.782,83.760 56.445 C 83.203 55.715,82.993 55.622,83.496 56.328 M84.573 57.721 C 84.830 58.058,85.073 58.333,85.114 58.333 C 85.230 58.333,84.509 57.358,84.295 57.227 C 84.191 57.162,84.316 57.385,84.573 57.721 M167.333 57.948 C 167.333 58.105,168.197 59.000,168.348 59.000 C 168.413 59.000,168.723 59.244,169.035 59.542 C 169.348 59.840,170.011 60.421,170.509 60.833 C 171.006 61.246,171.665 61.827,171.973 62.125 C 172.281 62.423,172.574 62.667,172.624 62.667 C 172.674 62.667,173.070 62.985,173.504 63.375 C 173.937 63.765,174.571 64.308,174.913 64.583 C 175.255 64.858,175.819 65.346,176.168 65.667 C 176.517 65.987,177.128 66.523,177.526 66.856 C 177.924 67.189,178.850 67.979,179.583 68.610 C 180.317 69.242,181.139 69.945,181.412 70.171 C 181.684 70.398,182.108 70.790,182.353 71.042 C 182.599 71.294,182.881 71.500,182.979 71.500 C 183.077 71.500,183.323 71.725,183.526 72.000 C 183.730 72.275,183.964 72.500,184.047 72.500 C 184.130 72.500,184.854 73.100,185.657 73.833 C 186.459 74.567,187.159 75.167,187.212 75.167 C 187.264 75.167,187.524 75.373,187.789 75.625 C 188.053 75.877,188.415 76.199,188.593 76.340 C 188.771 76.482,189.479 77.081,190.167 77.672 C 190.854 78.264,191.598 78.898,191.820 79.082 C 192.042 79.266,192.361 79.548,192.529 79.708 C 192.943 80.105,193.018 80.086,193.667 79.417 C 193.978 79.096,194.302 78.833,194.387 78.833 C 194.473 78.833,194.825 78.590,195.169 78.292 C 195.513 77.994,196.442 77.262,197.234 76.667 C 198.025 76.071,198.964 75.358,199.319 75.083 C 199.674 74.808,200.798 73.950,201.817 73.176 L 203.670 71.769 203.627 64.843 L 203.583 57.917 185.458 57.874 C 175.490 57.851,167.333 57.884,167.333 57.948 M338.167 58.898 C 338.167 58.933,339.348 59.959,340.792 61.177 C 343.167 63.182,345.575 65.284,346.920 66.526 L 347.423 66.991 347.420 62.912 L 347.417 58.834 342.792 58.834 C 340.248 58.833,338.167 58.862,338.167 58.898 M87.166 60.958 C 87.384 61.256,87.589 61.500,87.621 61.500 C 87.747 61.500,87.334 60.875,87.061 60.653 C 86.881 60.507,86.921 60.623,87.166 60.958 M322.713 68.599 C 322.766 68.957,323.038 71.950,323.317 75.250 C 323.595 78.550,324.090 84.400,324.415 88.250 C 324.741 92.100,324.991 95.402,324.971 95.588 C 324.951 95.773,325.088 96.148,325.274 96.421 C 325.461 96.694,325.907 97.359,326.265 97.900 C 327.534 99.816,327.675 100.003,328.003 100.207 C 328.184 100.321,328.333 100.495,328.333 100.594 C 328.333 100.822,329.044 101.500,329.283 101.500 C 329.381 101.500,329.573 101.669,329.708 101.875 C 329.980 102.287,332.393 103.997,332.715 104.005 C 332.826 104.008,333.217 104.195,333.583 104.421 L 334.250 104.832 342.293 104.832 L 350.336 104.833 349.385 103.542 C 348.862 102.831,348.347 102.175,348.242 102.083 C 348.136 101.992,347.284 100.867,346.348 99.583 C 342.981 94.966,340.970 92.251,340.854 92.168 C 340.790 92.121,340.033 91.108,339.174 89.917 C 338.314 88.725,337.443 87.563,337.237 87.333 C 337.032 87.104,336.172 85.942,335.326 84.750 C 334.481 83.558,333.587 82.358,333.339 82.083 C 333.091 81.808,332.182 80.624,331.319 79.451 C 330.456 78.278,328.874 76.141,327.803 74.701 C 326.732 73.261,325.210 71.205,324.421 70.130 C 322.739 67.842,322.578 67.698,322.713 68.599 M269.783 71.081 C 269.935 71.401,270.089 71.633,270.125 71.597 C 270.202 71.520,269.696 70.500,269.582 70.500 C 269.540 70.500,269.630 70.762,269.783 71.081 M271.086 73.783 C 271.336 74.381,271.500 74.651,271.500 74.465 C 271.500 74.285,270.994 73.167,270.912 73.167 C 270.866 73.167,270.945 73.444,271.086 73.783 M272.178 75.917 C 272.178 76.008,272.286 76.271,272.417 76.500 C 272.548 76.729,272.655 76.842,272.655 76.750 C 272.655 76.658,272.548 76.396,272.417 76.167 C 272.286 75.938,272.178 75.825,272.178 75.917 M273.347 78.417 C 273.347 78.508,273.491 78.846,273.667 79.167 C 273.842 79.487,273.986 79.675,273.986 79.583 C 273.986 79.492,273.842 79.154,273.667 78.833 C 273.491 78.512,273.347 78.325,273.347 78.417 M274.679 81.167 C 274.679 81.407,275.149 82.361,275.161 82.144 C 275.164 82.086,275.057 81.786,274.923 81.477 C 274.789 81.169,274.679 81.029,274.679 81.167 M275.847 83.583 C 275.847 83.675,275.991 84.012,276.167 84.333 C 276.342 84.654,276.486 84.842,276.486 84.750 C 276.486 84.658,276.342 84.321,276.167 84.000 C 275.991 83.679,275.847 83.492,275.847 83.583 M244.849 84.693 C 244.748 84.983,244.489 85.452,244.273 85.735 C 244.058 86.018,243.711 86.587,243.502 87.000 C 243.294 87.412,242.806 88.276,242.417 88.919 C 242.029 89.562,241.499 90.499,241.239 91.002 C 240.979 91.505,240.718 91.954,240.658 92.000 C 240.597 92.046,240.288 92.571,239.969 93.167 C 239.650 93.763,239.221 94.513,239.014 94.833 C 238.608 95.466,236.682 98.836,236.110 99.917 C 235.916 100.283,235.512 100.957,235.212 101.413 C 234.912 101.869,234.667 102.304,234.667 102.378 C 234.667 102.453,234.367 102.976,234.000 103.540 C 233.633 104.105,233.333 104.628,233.333 104.703 C 233.333 104.778,234.956 104.820,236.940 104.795 L 240.546 104.750 241.532 102.917 C 242.075 101.908,243.049 100.071,243.696 98.833 C 244.344 97.596,244.978 96.465,245.104 96.320 C 245.230 96.175,245.333 95.975,245.333 95.876 C 245.333 95.618,246.146 94.033,246.339 93.913 C 246.427 93.858,246.500 93.704,246.500 93.571 C 246.500 93.437,246.728 92.936,247.007 92.456 C 247.575 91.480,247.609 91.418,248.206 90.250 C 248.440 89.792,248.916 88.892,249.262 88.250 C 249.609 87.608,250.078 86.708,250.304 86.250 C 250.530 85.792,250.854 85.238,251.024 85.019 C 251.668 84.192,251.583 84.167,248.183 84.167 L 245.033 84.167 244.849 84.693 M277.167 86.397 C 277.167 86.576,277.663 87.500,277.759 87.500 C 277.804 87.500,277.718 87.256,277.566 86.958 C 277.257 86.350,277.167 86.223,277.167 86.397 M370.333 88.714 C 370.333 88.757,370.762 89.158,371.285 89.605 C 371.808 90.051,372.183 90.330,372.118 90.223 C 371.975 89.991,370.333 88.602,370.333 88.714 M279.678 91.583 C 279.678 91.675,279.786 91.938,279.917 92.167 C 280.048 92.396,280.155 92.508,280.155 92.417 C 280.155 92.325,280.048 92.063,279.917 91.833 C 279.786 91.604,279.678 91.492,279.678 91.583 M377.833 95.052 C 377.833 95.098,378.208 95.450,378.667 95.833 C 379.125 96.217,379.500 96.494,379.500 96.448 C 379.500 96.402,379.125 96.050,378.667 95.667 C 378.208 95.283,377.833 95.006,377.833 95.052 M283.695 100.009 C 283.792 100.288,283.903 100.486,283.941 100.448 C 284.023 100.366,283.709 99.500,283.596 99.500 C 283.553 99.500,283.597 99.729,283.695 100.009 M284.949 102.581 C 285.102 102.901,285.256 103.133,285.292 103.097 C 285.368 103.020,284.862 102.000,284.748 102.000 C 284.706 102.000,284.797 102.262,284.949 102.581 " stroke="none" fill="#16639b" fill-rule="evenodd"></path><path id="path1" d="M114.833 32.500 C 114.833 32.592,114.910 32.667,115.004 32.667 C 115.097 32.667,115.263 32.873,115.371 33.125 C 115.480 33.377,115.765 33.883,116.004 34.250 C 116.243 34.617,116.650 35.329,116.907 35.833 C 117.165 36.337,117.427 36.787,117.490 36.833 C 117.553 36.879,118.003 37.667,118.490 38.583 C 118.978 39.500,119.471 40.362,119.586 40.500 C 119.702 40.637,120.006 41.162,120.263 41.667 C 120.520 42.171,120.979 42.957,121.282 43.414 C 121.585 43.872,121.833 44.309,121.833 44.386 C 121.833 44.464,122.078 44.915,122.377 45.388 C 122.677 45.862,123.000 46.400,123.096 46.583 C 123.481 47.319,125.743 51.288,126.088 51.833 C 126.291 52.154,126.679 52.829,126.951 53.333 C 127.222 53.837,127.870 54.977,128.389 55.866 C 128.908 56.755,129.333 57.517,129.333 57.560 C 129.333 57.603,129.596 58.036,129.917 58.523 C 130.237 59.010,130.500 59.474,130.500 59.554 C 130.500 59.633,130.665 59.930,130.867 60.214 C 131.218 60.708,131.477 61.159,133.476 64.767 C 133.968 65.654,134.586 66.721,134.851 67.139 L 135.333 67.899 135.333 59.449 L 135.333 51.000 147.000 51.000 C 153.417 51.000,158.667 50.957,158.667 50.905 C 158.667 50.770,158.504 50.624,156.083 48.582 C 152.345 45.429,151.439 44.650,150.667 43.924 C 150.254 43.536,148.192 41.770,146.083 39.999 C 143.975 38.228,141.650 36.244,140.917 35.590 C 140.183 34.935,139.038 33.935,138.371 33.366 L 137.158 32.333 125.996 32.333 C 118.665 32.333,114.833 32.391,114.833 32.500 M307.514 32.391 C 307.552 32.423,308.821 33.520,310.333 34.830 C 313.040 37.173,313.688 37.753,314.726 38.756 C 315.014 39.035,317.050 40.826,319.250 42.736 C 323.414 46.352,325.406 48.117,326.147 48.845 C 326.387 49.081,326.980 49.625,327.464 50.054 L 328.344 50.833 344.964 50.829 L 361.583 50.824 362.583 50.080 C 363.133 49.671,363.801 49.167,364.068 48.960 C 364.335 48.753,365.197 48.147,365.985 47.615 C 366.772 47.082,367.604 46.480,367.833 46.278 C 368.063 46.076,368.475 45.756,368.750 45.568 C 371.330 43.803,372.629 42.888,372.872 42.664 C 373.031 42.517,373.818 41.956,374.622 41.416 C 375.426 40.876,376.323 40.230,376.615 39.981 C 376.907 39.732,377.282 39.442,377.448 39.338 C 377.662 39.203,377.689 39.122,377.542 39.060 C 377.427 39.012,377.333 38.869,377.333 38.742 C 377.333 38.615,377.120 38.265,376.858 37.964 C 376.597 37.663,376.278 37.223,376.150 36.987 C 375.787 36.317,374.299 34.120,373.966 33.760 C 373.801 33.583,373.667 33.342,373.667 33.225 C 373.667 33.108,373.503 32.860,373.302 32.673 C 372.761 32.169,333.361 32.134,332.039 32.637 C 330.012 33.407,327.351 35.670,326.029 37.750 C 325.796 38.117,325.394 38.748,325.136 39.154 C 324.878 39.559,324.667 39.991,324.667 40.114 C 324.667 40.237,324.517 40.655,324.335 41.043 C 324.153 41.432,323.855 42.162,323.674 42.667 L 323.345 43.583 323.339 37.958 L 323.333 32.333 315.389 32.333 C 311.019 32.333,307.476 32.359,307.514 32.391 M139.667 58.259 C 139.667 58.492,139.967 59.444,140.333 60.374 C 140.700 61.304,141.000 62.153,141.000 62.261 C 141.000 62.369,141.262 63.109,141.583 63.905 C 141.904 64.701,142.167 65.464,142.167 65.602 C 142.167 65.739,142.305 66.166,142.474 66.551 C 142.780 67.245,143.210 68.394,143.703 69.833 C 144.648 72.590,145.333 74.466,145.692 75.283 C 145.862 75.667,146.000 76.092,146.000 76.227 C 146.000 76.362,146.252 77.135,146.561 77.945 C 146.870 78.754,147.216 79.717,147.330 80.083 C 147.445 80.450,147.638 80.975,147.759 81.250 C 148.275 82.421,148.500 83.060,148.500 83.356 C 148.500 83.529,148.573 83.801,148.663 83.961 C 148.958 84.484,149.701 86.405,149.838 87.000 C 149.912 87.321,150.212 88.221,150.504 89.000 C 150.797 89.779,151.320 91.204,151.667 92.167 C 152.013 93.129,152.537 94.554,152.829 95.333 C 153.122 96.112,153.402 96.938,153.452 97.167 C 153.502 97.396,153.822 98.333,154.164 99.250 C 154.506 100.167,154.924 101.329,155.091 101.833 C 155.259 102.337,155.494 102.938,155.614 103.167 C 155.733 103.396,155.834 103.658,155.838 103.750 C 155.861 104.371,156.662 104.833,157.713 104.833 C 158.814 104.833,159.106 104.684,162.083 102.599 C 162.503 102.305,165.154 100.561,167.917 98.761 C 168.742 98.224,169.454 97.736,169.500 97.678 C 169.546 97.619,170.328 97.096,171.239 96.516 C 172.150 95.936,172.997 95.360,173.122 95.235 C 173.247 95.110,173.473 94.939,173.623 94.854 C 173.963 94.664,173.781 93.962,172.910 92.104 C 172.593 91.426,172.333 90.793,172.333 90.696 C 172.333 90.599,172.033 89.873,171.667 89.083 C 171.300 88.293,171.000 87.547,171.000 87.425 C 171.000 87.303,170.737 86.672,170.417 86.023 C 170.096 85.374,169.833 84.738,169.833 84.611 C 169.833 84.484,169.533 83.739,169.167 82.957 C 168.800 82.174,168.500 81.443,168.500 81.331 C 168.500 81.220,168.237 80.568,167.917 79.883 C 167.027 77.983,166.986 78.042,169.292 77.951 C 172.186 77.836,174.639 76.984,175.971 75.630 C 176.216 75.380,176.481 75.174,176.560 75.171 C 176.638 75.169,177.126 74.743,177.643 74.226 L 178.583 73.286 178.678 81.185 C 178.773 89.182,178.889 90.642,179.413 90.441 C 179.675 90.341,183.032 87.831,183.250 87.573 C 183.342 87.464,184.750 86.372,186.379 85.146 C 188.008 83.920,190.163 82.291,191.168 81.526 L 192.996 80.135 192.384 79.609 C 192.047 79.320,191.458 78.802,191.075 78.458 C 190.693 78.115,190.339 77.833,190.290 77.833 C 190.240 77.833,189.949 77.590,189.642 77.292 C 189.151 76.815,186.285 74.365,184.682 73.049 C 184.369 72.793,183.887 72.340,183.610 72.042 C 183.332 71.744,183.023 71.500,182.923 71.500 C 182.823 71.500,182.549 71.294,182.314 71.042 C 182.078 70.790,181.518 70.271,181.068 69.890 C 180.618 69.509,179.612 68.649,178.833 67.980 C 178.054 67.311,177.270 66.648,177.092 66.507 C 176.913 66.365,176.564 66.044,176.317 65.792 C 176.069 65.540,175.805 65.333,175.730 65.333 C 175.655 65.333,175.329 65.075,175.005 64.760 C 174.681 64.444,174.004 63.839,173.500 63.415 C 172.996 62.990,172.283 62.380,171.917 62.059 C 171.550 61.738,171.137 61.380,171.000 61.264 C 170.862 61.148,169.907 60.329,168.876 59.443 L 167.002 57.833 153.334 57.833 L 139.667 57.833 139.667 58.259 M364.684 86.708 C 364.030 87.556,362.373 89.675,361.003 91.417 C 358.313 94.835,356.262 97.473,355.369 98.667 C 355.060 99.079,354.719 99.492,354.612 99.585 C 354.505 99.678,354.186 100.053,353.904 100.418 C 351.719 103.254,350.667 104.658,350.667 104.739 C 350.667 104.791,356.123 104.833,362.792 104.833 L 374.917 104.833 375.389 104.085 C 375.649 103.673,376.052 102.942,376.284 102.460 C 376.516 101.978,376.759 101.546,376.825 101.500 C 376.891 101.454,377.189 100.932,377.487 100.341 C 377.786 99.749,378.173 99.082,378.348 98.860 C 378.523 98.637,378.667 98.351,378.667 98.224 C 378.667 98.097,378.867 97.691,379.111 97.322 C 379.498 96.737,379.524 96.619,379.315 96.410 C 379.065 96.160,376.929 94.361,370.289 88.808 C 368.135 87.006,366.322 85.450,366.260 85.349 C 366.051 85.012,365.879 85.161,364.684 86.708 " stroke="none" fill="#bbdbec" fill-rule="evenodd"></path><path id="path2" d="M298.040 9.035 C 297.941 9.154,297.809 9.455,297.747 9.702 C 297.685 9.950,297.536 10.235,297.416 10.334 C 297.240 10.480,297.275 10.599,297.593 10.943 C 297.811 11.178,298.040 11.531,298.101 11.727 C 298.162 11.923,298.352 12.262,298.523 12.481 C 299.011 13.106,298.936 13.136,297.098 13.042 L 295.363 12.954 295.015 13.718 C 294.587 14.656,294.587 14.691,295.003 15.507 L 295.340 16.167 297.096 16.167 L 298.851 16.167 298.238 17.292 C 297.901 17.910,297.552 18.508,297.464 18.619 C 297.354 18.757,297.428 19.051,297.695 19.536 C 298.399 20.815,300.667 20.527,300.667 19.158 C 300.667 18.995,300.730 18.836,300.808 18.806 C 301.005 18.728,301.833 17.206,301.833 16.923 C 301.833 16.286,302.284 16.167,304.679 16.167 C 307.384 16.167,307.601 16.384,306.246 17.739 C 306.019 17.966,305.833 18.241,305.833 18.351 C 305.833 18.460,305.601 19.007,305.317 19.566 L 304.800 20.583 302.582 20.583 L 300.365 20.583 299.905 21.080 C 298.636 22.450,299.439 23.833,301.504 23.833 C 302.327 23.833,303.000 23.867,303.000 23.908 C 303.000 23.950,302.775 24.317,302.500 24.724 C 302.225 25.132,302.000 25.574,302.000 25.707 C 302.000 25.840,301.850 26.084,301.667 26.250 C 301.483 26.416,301.333 26.690,301.333 26.859 C 301.333 27.028,301.483 27.317,301.667 27.500 C 301.850 27.683,302.000 27.983,302.000 28.167 C 302.000 28.466,302.111 28.500,303.083 28.500 C 303.839 28.500,304.167 28.437,304.167 28.292 C 304.167 28.030,305.143 26.166,305.430 25.880 C 305.634 25.676,306.333 26.361,306.333 26.765 C 306.333 27.400,307.118 27.998,307.951 27.999 C 309.525 28.001,310.042 26.476,308.911 25.167 C 308.792 25.029,308.562 24.579,308.401 24.167 C 308.239 23.754,307.919 23.166,307.689 22.860 C 307.317 22.365,307.296 22.265,307.500 21.944 C 307.909 21.300,308.668 19.930,308.918 19.386 C 309.052 19.095,309.238 18.809,309.331 18.752 C 309.424 18.694,309.500 18.501,309.500 18.323 C 309.500 17.900,309.781 17.907,309.917 18.334 C 309.975 18.517,310.167 18.745,310.345 18.839 C 310.522 18.934,310.667 19.096,310.667 19.198 C 310.667 19.514,311.657 21.500,311.815 21.500 C 312.260 21.500,312.164 22.416,311.624 23.315 C 311.316 23.829,310.970 24.438,310.857 24.667 C 310.743 24.896,310.473 25.383,310.255 25.750 C 309.738 26.622,309.740 26.645,310.390 27.375 C 311.265 28.358,313.167 28.085,313.167 26.977 C 313.167 26.815,313.348 26.414,313.569 26.088 L 313.972 25.495 314.510 26.456 C 314.807 26.984,315.169 27.658,315.316 27.953 C 315.774 28.871,317.272 28.774,317.792 27.792 C 318.290 26.853,318.284 26.819,317.417 25.390 C 316.446 23.791,316.428 23.833,318.072 23.833 C 319.474 23.833,320.086 23.491,319.558 23.002 C 318.903 22.394,317.315 21.167,317.185 21.167 C 317.096 21.167,316.972 21.008,316.911 20.815 C 316.809 20.495,316.702 20.470,315.730 20.531 L 314.661 20.599 314.500 20.001 C 314.412 19.672,314.196 19.249,314.021 19.060 C 313.845 18.872,313.585 18.493,313.443 18.217 C 313.300 17.942,312.899 17.475,312.550 17.181 C 312.202 16.887,311.729 16.477,311.500 16.269 C 311.271 16.062,310.833 15.719,310.527 15.508 C 310.221 15.296,309.365 14.611,308.625 13.985 C 307.885 13.359,307.198 12.898,307.098 12.961 C 306.998 13.024,305.872 13.051,304.596 13.020 C 302.266 12.965,301.843 12.856,301.827 12.304 C 301.823 12.182,301.422 11.371,300.935 10.500 L 300.049 8.917 299.135 8.867 C 298.534 8.835,298.158 8.893,298.040 9.035 M67.500 34.087 L 67.500 35.841 68.167 36.564 C 68.533 36.962,68.833 37.346,68.833 37.417 C 68.833 37.488,69.115 37.859,69.458 38.242 C 69.802 38.624,70.721 39.783,71.500 40.817 C 72.279 41.850,73.104 42.906,73.333 43.163 C 73.563 43.419,74.162 44.174,74.667 44.839 C 76.082 46.708,77.772 48.872,78.177 49.333 C 78.378 49.563,79.322 50.762,80.275 52.000 C 83.127 55.702,86.060 59.446,87.414 61.110 L 87.744 61.516 87.322 62.383 C 87.090 62.860,86.618 63.850,86.272 64.583 C 85.927 65.317,85.360 66.517,85.013 67.250 C 83.464 70.520,83.147 71.189,82.329 72.917 C 81.852 73.925,81.177 75.350,80.829 76.083 C 79.315 79.275,79.000 79.957,79.000 80.052 C 79.000 80.107,78.788 80.512,78.528 80.952 C 78.269 81.392,78.005 81.956,77.943 82.206 C 77.880 82.456,77.605 83.040,77.331 83.504 C 77.057 83.968,76.833 84.430,76.833 84.529 C 76.833 84.629,76.547 85.282,76.196 85.980 C 75.846 86.679,75.294 87.813,74.970 88.500 C 74.646 89.188,74.076 90.388,73.703 91.167 C 73.331 91.946,72.675 93.333,72.247 94.250 C 71.247 96.389,70.534 97.897,69.682 99.673 C 69.307 100.455,69.000 101.146,69.000 101.207 C 69.000 101.269,68.783 101.686,68.519 102.135 C 68.254 102.584,67.985 103.188,67.922 103.476 C 67.859 103.764,67.738 104.000,67.653 104.000 C 67.569 104.000,67.500 104.188,67.500 104.417 L 67.500 104.833 78.561 104.833 L 89.621 104.833 89.727 104.060 C 89.786 103.635,89.833 102.322,89.833 101.143 C 89.833 99.178,89.859 99.000,90.138 99.000 C 90.403 99.000,90.499 98.648,90.872 96.292 C 91.108 94.802,91.546 92.083,91.846 90.250 C 92.146 88.417,92.459 86.354,92.543 85.667 C 92.718 84.225,93.474 79.558,93.603 79.125 C 93.682 78.859,93.519 78.833,91.761 78.833 L 89.833 78.833 89.833 71.654 L 89.833 64.474 90.250 64.970 C 90.479 65.242,90.667 65.571,90.667 65.701 C 90.667 65.831,90.803 66.083,90.969 66.262 C 91.232 66.544,92.198 68.069,93.000 69.467 C 93.638 70.580,94.662 71.871,94.732 71.652 C 94.773 71.522,94.892 70.779,94.995 70.000 C 95.098 69.221,95.373 67.421,95.606 66.000 C 95.838 64.579,96.101 62.854,96.189 62.167 C 96.277 61.479,96.643 59.079,97.001 56.833 C 97.359 54.587,97.736 52.150,97.838 51.417 C 97.941 50.683,98.202 49.108,98.418 47.917 C 98.977 44.836,99.002 43.871,98.537 43.219 C 98.334 42.933,98.167 42.648,98.167 42.586 C 98.167 42.525,97.867 42.055,97.500 41.543 C 97.133 41.031,96.833 40.550,96.833 40.473 C 96.833 40.397,96.571 39.969,96.250 39.522 C 95.929 39.076,95.667 38.654,95.667 38.586 C 95.667 38.517,95.417 38.114,95.112 37.689 C 94.808 37.264,94.344 36.543,94.083 36.086 C 93.821 35.629,93.470 35.109,93.303 34.929 C 93.137 34.750,93.000 34.468,93.000 34.302 C 93.000 34.136,92.941 34.000,92.868 34.000 C 92.796 34.000,92.518 33.625,92.250 33.167 L 91.763 32.333 79.632 32.333 L 67.500 32.333 67.500 34.087 M213.500 32.583 C 213.500 32.721,213.560 32.833,213.633 32.833 C 213.706 32.833,214.264 33.490,214.872 34.292 C 216.344 36.231,217.359 37.526,218.667 39.129 C 219.262 39.860,220.275 41.156,220.917 42.010 C 221.558 42.865,222.390 43.906,222.765 44.323 C 223.396 45.027,225.309 47.485,227.146 49.952 L 227.917 50.987 246.150 50.952 L 264.383 50.917 264.872 50.000 C 265.345 49.113,266.921 46.358,267.638 45.167 C 267.830 44.846,268.247 44.096,268.564 43.500 C 268.881 42.904,269.333 42.158,269.570 41.843 C 269.806 41.527,270.000 41.219,270.000 41.157 C 270.000 41.026,272.754 36.168,272.982 35.897 C 273.068 35.794,273.343 35.307,273.592 34.814 C 273.841 34.320,274.260 33.603,274.522 33.220 C 274.785 32.837,275.000 32.481,275.000 32.428 C 275.000 32.376,269.714 32.333,263.253 32.333 L 251.506 32.333 251.433 32.708 C 251.366 33.052,250.652 49.212,250.661 50.167 C 250.665 50.472,250.510 50.283,250.083 49.458 C 249.762 48.840,249.228 47.827,248.895 47.208 C 248.562 46.590,248.031 45.596,247.715 45.000 C 247.398 44.404,246.816 43.317,246.421 42.583 C 246.026 41.850,245.474 40.780,245.194 40.206 C 244.914 39.631,244.569 39.045,244.426 38.902 C 244.284 38.760,244.119 38.442,244.059 38.197 C 244.000 37.951,243.700 37.367,243.392 36.899 C 243.085 36.432,242.833 35.944,242.833 35.816 C 242.833 35.688,242.533 35.133,242.167 34.583 C 241.801 34.033,241.501 33.469,241.501 33.329 C 241.500 33.189,241.383 32.907,241.241 32.704 L 240.981 32.333 227.241 32.333 C 215.138 32.333,213.500 32.363,213.500 32.583 M296.167 32.416 C 296.167 32.462,296.415 32.781,296.718 33.125 C 297.022 33.469,297.975 34.725,298.837 35.917 C 299.698 37.108,300.450 38.121,300.507 38.167 C 300.564 38.212,301.427 39.375,302.425 40.750 C 303.422 42.125,304.323 43.325,304.426 43.417 C 304.528 43.508,305.312 44.558,306.167 45.750 C 307.022 46.942,307.922 48.142,308.166 48.417 C 308.410 48.692,308.974 49.442,309.419 50.083 C 309.864 50.725,310.758 51.934,311.405 52.769 C 312.053 53.605,313.296 55.248,314.167 56.420 C 315.037 57.592,316.350 59.357,317.083 60.342 C 317.817 61.327,319.232 63.246,320.229 64.608 C 321.226 65.969,322.133 67.158,322.245 67.250 C 322.400 67.376,322.257 67.701,321.657 68.583 C 321.221 69.225,320.359 70.537,319.741 71.500 C 319.123 72.462,318.564 73.287,318.497 73.333 C 318.431 73.379,317.861 74.211,317.230 75.183 C 315.406 77.992,313.714 80.543,313.386 80.977 C 313.219 81.197,312.633 82.073,312.083 82.922 C 310.734 85.006,306.542 91.314,306.160 91.833 C 305.992 92.063,305.347 93.037,304.727 94.000 C 304.107 94.962,303.550 95.787,303.488 95.833 C 303.427 95.879,302.861 96.709,302.230 97.678 C 299.540 101.810,298.668 103.122,298.182 103.766 C 297.898 104.142,297.667 104.536,297.667 104.641 C 297.667 104.785,300.926 104.833,310.500 104.833 L 323.333 104.833 323.345 98.625 C 323.353 93.952,323.401 92.520,323.540 92.833 C 323.641 93.063,323.936 93.724,324.195 94.303 C 324.454 94.883,324.667 95.426,324.667 95.512 C 324.667 95.597,324.742 95.667,324.833 95.667 C 325.064 95.667,325.075 95.857,324.429 88.333 C 324.110 84.621,323.616 78.808,323.330 75.417 C 323.045 72.025,322.767 68.957,322.713 68.599 C 322.578 67.698,322.739 67.842,324.421 70.130 C 325.210 71.205,326.732 73.261,327.803 74.701 C 328.874 76.141,330.456 78.278,331.319 79.451 C 332.182 80.624,333.091 81.808,333.339 82.083 C 333.587 82.358,334.481 83.558,335.326 84.750 C 336.172 85.942,337.032 87.104,337.237 87.333 C 337.443 87.563,338.314 88.725,339.174 89.917 C 340.033 91.108,340.790 92.121,340.854 92.168 C 340.970 92.251,342.981 94.966,346.348 99.583 C 347.284 100.867,348.136 101.992,348.242 102.083 C 348.347 102.175,348.862 102.831,349.385 103.542 C 350.536 105.105,350.367 105.110,351.583 103.470 C 352.793 101.839,354.023 100.265,354.633 99.568 C 354.880 99.284,355.721 98.204,356.500 97.168 C 357.279 96.132,358.199 94.952,358.544 94.545 C 358.890 94.139,360.112 92.594,361.261 91.112 C 362.409 89.629,363.950 87.648,364.684 86.708 L 366.020 85.000 356.760 85.000 L 347.500 85.000 347.500 76.021 L 347.500 67.043 345.458 65.222 C 344.335 64.221,342.203 62.374,340.720 61.118 L 338.024 58.833 330.512 58.833 L 323.000 58.833 323.000 54.833 L 323.000 50.833 325.672 50.833 L 328.344 50.833 327.464 50.054 C 326.980 49.625,326.387 49.081,326.147 48.845 C 325.406 48.117,323.414 46.352,319.250 42.736 C 317.050 40.826,315.014 39.035,314.725 38.756 C 313.680 37.748,313.203 37.321,310.356 34.848 L 307.462 32.333 301.814 32.333 C 298.708 32.333,296.167 32.371,296.167 32.416 M117.500 36.897 C 117.500 37.076,117.996 38.000,118.092 38.000 C 118.138 38.000,118.051 37.756,117.900 37.458 C 117.590 36.850,117.500 36.723,117.500 36.897 M376.738 39.882 C 376.378 40.185,375.426 40.874,374.622 41.415 C 373.818 41.955,373.031 42.517,372.872 42.664 C 372.615 42.900,370.497 44.391,368.546 45.709 C 368.159 45.970,367.800 46.253,367.748 46.336 C 367.697 46.419,366.926 46.978,366.036 47.577 C 365.145 48.176,364.213 48.835,363.965 49.041 C 363.716 49.248,363.089 49.717,362.572 50.083 L 361.632 50.750 373.426 50.793 C 385.601 50.837,385.540 50.839,385.202 50.367 C 385.090 50.211,384.931 49.926,384.847 49.734 C 384.763 49.542,384.591 49.280,384.465 49.151 C 384.203 48.882,382.735 46.741,382.272 45.950 C 382.101 45.658,381.783 45.207,381.564 44.947 C 381.346 44.687,381.167 44.374,381.167 44.251 C 381.167 44.128,381.110 44.003,381.042 43.972 C 380.861 43.892,379.834 42.544,379.832 42.385 C 379.831 42.311,379.568 41.921,379.248 41.518 C 378.928 41.116,378.667 40.718,378.667 40.634 C 378.667 40.397,377.771 39.333,377.572 39.333 C 377.474 39.333,377.099 39.580,376.738 39.882 M121.168 43.371 C 121.167 43.438,121.316 43.738,121.499 44.038 C 121.682 44.338,121.832 44.508,121.832 44.417 C 121.831 44.325,121.682 44.025,121.500 43.750 C 121.318 43.475,121.168 43.304,121.168 43.371 M125.083 50.333 C 125.226 50.608,125.379 50.833,125.425 50.833 C 125.471 50.833,125.392 50.608,125.250 50.333 C 125.108 50.058,124.954 49.833,124.908 49.833 C 124.862 49.833,124.941 50.058,125.083 50.333 M263.673 81.625 L 263.667 104.833 274.833 104.833 C 280.975 104.833,286.000 104.800,286.000 104.760 C 286.000 104.720,285.407 103.463,284.683 101.968 C 282.622 97.717,280.815 93.972,279.510 91.250 C 278.851 89.875,277.913 87.925,277.426 86.917 C 276.204 84.384,274.881 81.632,273.702 79.167 C 273.154 78.021,272.291 76.221,271.784 75.167 C 271.277 74.112,270.377 72.237,269.783 71.000 C 266.992 65.185,265.578 62.257,264.668 60.417 L 263.680 58.417 263.673 81.625 M131.500 61.500 C 131.687 61.867,131.878 62.167,131.923 62.167 C 131.969 62.167,131.854 61.867,131.667 61.500 C 131.480 61.133,131.289 60.833,131.243 60.833 C 131.197 60.833,131.313 61.133,131.500 61.500 M132.750 63.667 C 132.892 63.942,133.046 64.167,133.092 64.167 C 133.138 64.167,133.059 63.942,132.917 63.667 C 132.774 63.392,132.621 63.167,132.575 63.167 C 132.529 63.167,132.608 63.392,132.750 63.667 M202.667 72.500 C 202.346 72.770,201.812 73.217,201.480 73.495 C 201.148 73.773,200.819 74.000,200.750 74.000 C 200.681 74.000,200.347 74.244,200.008 74.542 C 199.236 75.221,196.244 77.519,195.802 77.772 C 195.621 77.876,195.232 78.195,194.937 78.480 C 194.642 78.766,194.332 79.000,194.248 79.000 C 194.165 79.000,193.793 79.297,193.423 79.659 C 192.735 80.332,191.587 81.226,186.379 85.146 C 184.750 86.372,183.342 87.464,183.250 87.573 C 183.031 87.832,179.674 90.341,179.412 90.442 C 179.044 90.583,181.101 96.088,181.676 96.500 C 181.739 96.546,182.009 96.928,182.275 97.348 C 183.398 99.127,185.371 101.213,186.999 102.345 C 188.209 103.186,189.294 103.738,191.043 104.404 L 192.170 104.833 212.752 104.833 C 224.072 104.833,233.333 104.773,233.333 104.700 C 233.333 104.626,233.633 104.105,234.000 103.540 C 234.367 102.976,234.667 102.453,234.667 102.378 C 234.667 102.304,234.912 101.869,235.212 101.413 C 235.512 100.957,235.916 100.283,236.110 99.917 C 236.682 98.836,238.608 95.466,239.014 94.833 C 239.221 94.513,239.650 93.765,239.969 93.173 C 240.287 92.580,240.650 91.993,240.774 91.869 C 240.898 91.745,241.000 91.579,241.000 91.501 C 241.000 91.423,241.387 90.697,241.861 89.888 C 242.335 89.079,242.945 88.004,243.217 87.500 C 243.489 86.996,243.958 86.208,244.258 85.750 C 244.559 85.292,244.854 84.748,244.913 84.542 L 245.022 84.167 224.345 84.167 L 203.667 84.167 203.667 78.083 C 203.667 71.409,203.706 71.627,202.667 72.500 M173.495 94.949 C 173.269 95.104,173.046 95.281,173.000 95.342 C 172.954 95.404,172.167 95.930,171.250 96.512 C 170.333 97.094,169.546 97.619,169.500 97.678 C 169.454 97.736,168.742 98.224,167.917 98.761 C 164.995 100.665,162.481 102.319,162.083 102.602 C 161.900 102.732,161.112 103.268,160.333 103.794 L 158.917 104.750 168.401 104.793 C 173.618 104.817,177.926 104.796,177.974 104.748 C 178.023 104.699,177.899 104.321,177.698 103.909 C 177.497 103.496,177.333 103.081,177.333 102.986 C 177.333 102.826,177.108 102.265,175.498 98.417 C 175.153 97.592,174.667 96.410,174.417 95.792 C 174.167 95.173,173.950 94.667,173.935 94.667 C 173.920 94.667,173.722 94.794,173.495 94.949 " stroke="none" fill="#66c6ed" fill-rule="evenodd"></path><path id="path3" d="M314.854 1.919 C 314.454 2.596,314.400 2.799,314.708 2.464 C 315.020 2.125,315.367 1.478,315.282 1.393 C 315.241 1.352,315.049 1.589,314.854 1.919 M309.167 1.980 C 309.167 2.152,309.278 2.385,309.414 2.498 C 309.630 2.677,309.639 2.637,309.482 2.185 C 309.276 1.595,309.167 1.524,309.167 1.980 M305.917 3.000 C 305.774 3.275,305.696 3.500,305.741 3.500 C 305.787 3.500,305.941 3.275,306.083 3.000 C 306.226 2.725,306.304 2.500,306.259 2.500 C 306.213 2.500,306.059 2.725,305.917 3.000 M313.635 3.250 C 313.719 3.433,313.830 3.696,313.881 3.833 C 313.961 4.049,313.975 4.048,313.987 3.824 C 313.994 3.681,313.883 3.418,313.741 3.240 C 313.486 2.922,313.484 2.922,313.635 3.250 M307.841 8.014 C 307.943 8.205,308.060 8.329,308.101 8.288 C 308.217 8.171,307.981 7.667,307.810 7.667 C 307.724 7.667,307.739 7.823,307.841 8.014 M67.500 69.990 C 67.500 101.760,67.543 105.200,67.922 103.476 C 67.985 103.188,68.253 102.586,68.516 102.139 C 68.780 101.692,69.046 101.123,69.109 100.875 C 69.171 100.627,69.463 100.009,69.757 99.503 C 70.051 98.997,70.347 98.396,70.414 98.167 C 70.482 97.938,70.745 97.337,71.000 96.833 C 71.492 95.858,72.359 94.034,73.497 91.583 C 73.880 90.758,74.481 89.483,74.833 88.750 C 75.185 88.017,75.736 86.854,76.057 86.167 C 76.379 85.479,76.945 84.279,77.315 83.500 C 77.685 82.721,78.252 81.521,78.576 80.833 C 78.900 80.146,79.680 78.496,80.311 77.167 C 80.941 75.837,81.736 74.150,82.077 73.417 C 82.417 72.683,82.999 71.446,83.370 70.667 C 83.740 69.887,84.377 68.537,84.784 67.667 C 85.762 65.579,86.789 63.441,87.291 62.448 L 87.697 61.646 86.738 60.365 C 86.211 59.660,85.658 58.971,85.510 58.833 C 85.362 58.696,84.502 57.608,83.597 56.417 C 82.693 55.225,81.701 53.984,81.393 53.660 C 81.085 53.335,80.833 53.007,80.833 52.930 C 80.833 52.853,80.590 52.513,80.292 52.174 C 79.994 51.836,79.112 50.709,78.333 49.671 C 77.554 48.633,76.729 47.580,76.500 47.331 C 76.271 47.082,75.671 46.335,75.167 45.670 C 73.642 43.660,72.044 41.608,71.659 41.167 C 71.459 40.938,70.511 39.720,69.552 38.461 C 68.594 37.202,67.740 36.129,67.655 36.076 C 67.560 36.017,67.500 49.099,67.500 69.990 M263.877 58.625 C 263.993 58.877,264.713 60.358,265.478 61.917 C 267.280 65.591,269.394 69.971,272.033 75.500 C 272.900 77.316,274.507 80.657,275.763 83.250 C 276.162 84.075,277.008 85.837,277.643 87.167 C 278.277 88.496,279.395 90.821,280.126 92.333 C 280.856 93.846,281.994 96.208,282.653 97.583 C 283.312 98.958,284.212 100.833,284.653 101.750 C 285.094 102.667,285.589 103.735,285.753 104.125 C 285.983 104.673,286.139 104.833,286.442 104.833 L 286.833 104.833 286.833 81.500 L 286.833 58.167 275.250 58.167 L 263.666 58.167 263.877 58.625 M113.592 71.441 C 111.971 73.407,111.749 73.666,111.042 74.417 C 110.783 74.692,109.347 76.417,107.851 78.250 C 106.355 80.083,104.970 81.733,104.774 81.917 C 104.577 82.100,103.742 83.066,102.917 84.063 C 102.092 85.060,100.704 86.723,99.833 87.759 C 98.962 88.795,97.130 90.979,95.761 92.613 C 94.393 94.247,92.649 96.306,91.886 97.188 C 91.124 98.071,90.500 98.840,90.500 98.897 C 90.500 98.954,95.254 99.000,101.065 99.000 L 111.630 99.000 111.991 99.768 C 112.190 100.191,112.383 100.506,112.420 100.469 C 112.523 100.366,113.833 86.680,113.833 85.706 C 113.833 85.237,114.136 81.755,114.506 77.968 C 114.876 74.182,115.158 70.757,115.131 70.358 L 115.083 69.632 113.592 71.441 M366.258 85.297 C 366.445 85.455,367.604 86.408,368.832 87.417 C 371.087 89.268,372.500 90.471,373.417 91.320 C 376.282 93.974,379.677 96.496,379.833 96.085 C 379.922 95.851,380.258 95.247,380.581 94.743 C 380.903 94.239,381.167 93.726,381.167 93.603 C 381.167 93.479,381.307 93.199,381.478 92.981 C 381.649 92.762,382.034 92.096,382.333 91.500 C 382.632 90.904,382.931 90.379,382.999 90.333 C 383.066 90.287,383.355 89.775,383.642 89.195 C 383.928 88.615,384.314 87.928,384.498 87.669 C 384.682 87.410,384.833 87.119,384.833 87.022 C 384.833 86.924,385.058 86.490,385.333 86.056 C 385.608 85.623,385.833 85.208,385.833 85.134 C 385.833 85.060,381.352 85.002,375.875 85.006 C 366.443 85.011,365.935 85.026,366.258 85.297 " stroke="none" fill="#128fe8" fill-rule="evenodd"></path><path id="path4" d="M10.333 18.833 L 10.333 28.833 24.500 28.833 L 38.667 28.833 38.667 66.500 L 38.667 104.167 50.500 104.167 L 62.333 104.167 62.333 66.500 L 62.333 28.833 76.076 28.833 L 89.818 28.833 89.534 28.299 C 89.378 28.006,89.159 27.665,89.048 27.543 C 88.936 27.421,88.714 27.099,88.553 26.827 C 88.393 26.556,88.203 26.333,88.131 26.333 C 88.059 26.333,88.000 26.231,88.000 26.107 C 88.000 25.982,87.738 25.551,87.418 25.148 C 87.098 24.746,86.836 24.357,86.835 24.285 C 86.834 24.212,86.533 23.746,86.167 23.250 C 85.800 22.754,85.499 22.288,85.497 22.215 C 85.495 22.143,85.233 21.784,84.913 21.418 C 84.594 21.053,84.333 20.693,84.333 20.620 C 84.333 20.546,84.033 20.080,83.667 19.583 C 83.300 19.087,82.999 18.621,82.998 18.549 C 82.997 18.476,82.735 18.087,82.415 17.685 C 82.095 17.282,81.833 16.884,81.833 16.800 C 81.833 16.661,80.893 15.366,80.647 15.167 C 80.591 15.121,80.496 14.928,80.437 14.738 C 80.378 14.548,80.196 14.248,80.032 14.071 C 79.721 13.735,78.130 11.372,78.021 11.083 C 77.986 10.992,77.667 10.535,77.312 10.068 C 76.957 9.601,76.667 9.132,76.667 9.026 C 76.667 8.881,68.511 8.833,43.500 8.833 L 10.333 8.833 10.333 18.833 M100.250 9.920 C 99.700 10.044,99.071 10.150,98.852 10.156 C 98.299 10.171,95.494 11.588,94.846 12.180 C 94.553 12.448,94.250 12.667,94.174 12.667 C 93.992 12.667,93.176 13.601,92.501 14.582 C 91.549 15.965,91.101 18.660,91.518 20.500 C 91.611 20.912,91.730 21.468,91.783 21.734 C 91.965 22.652,93.196 24.220,94.639 25.371 C 96.852 27.136,99.234 27.922,102.958 28.118 L 104.833 28.216 104.833 26.462 C 104.833 25.498,104.879 24.481,104.934 24.203 L 105.035 23.698 103.726 23.592 C 102.301 23.476,101.153 23.224,100.500 22.885 C 100.271 22.766,99.983 22.668,99.861 22.668 C 99.501 22.666,98.181 21.498,97.614 20.677 C 95.611 17.783,99.054 14.181,103.834 14.169 L 104.919 14.167 106.501 12.970 C 107.371 12.312,108.143 11.675,108.217 11.554 C 108.290 11.432,108.440 11.332,108.550 11.331 C 108.660 11.330,109.081 11.030,109.487 10.664 C 109.892 10.299,110.323 10.000,110.445 10.000 C 110.567 10.000,110.667 9.925,110.667 9.833 C 110.667 9.567,101.479 9.643,100.250 9.920 M114.995 9.949 C 114.769 10.104,114.546 10.277,114.500 10.335 C 114.454 10.392,113.892 10.833,113.250 11.315 C 112.608 11.797,112.023 12.299,111.950 12.429 C 111.877 12.560,111.736 12.667,111.637 12.667 C 111.538 12.667,111.180 12.910,110.840 13.208 C 110.501 13.506,110.117 13.825,109.987 13.917 C 109.787 14.057,109.757 15.193,109.795 21.125 L 109.840 28.167 117.170 28.167 L 124.500 28.167 124.500 25.917 L 124.500 23.667 120.083 23.667 L 115.667 23.667 115.667 22.500 L 115.667 21.333 120.083 21.333 L 124.500 21.333 124.500 19.000 L 124.500 16.667 120.083 16.667 L 115.667 16.667 115.667 15.417 L 115.667 14.167 120.042 14.166 C 124.877 14.165,124.851 14.170,126.073 12.978 C 126.343 12.715,126.662 12.500,126.782 12.500 C 126.902 12.500,127.000 12.437,127.000 12.359 C 127.000 12.282,127.479 11.867,128.064 11.437 C 128.649 11.008,129.298 10.508,129.506 10.328 C 129.714 10.148,129.985 10.000,130.109 10.000 C 130.232 10.000,130.333 9.925,130.333 9.833 C 130.333 9.505,115.481 9.617,114.995 9.949 M134.000 9.917 C 133.886 10.054,133.689 10.167,133.563 10.167 C 133.437 10.167,133.333 10.233,133.333 10.313 C 133.333 10.466,131.065 12.265,130.427 12.619 C 129.557 13.102,129.580 12.869,129.630 20.792 L 129.677 28.167 132.505 28.167 L 135.333 28.167 135.333 22.750 C 135.333 19.771,135.397 17.333,135.474 17.333 C 135.552 17.333,135.796 17.490,136.016 17.682 C 136.236 17.874,136.885 18.376,137.458 18.798 C 138.031 19.219,138.500 19.621,138.500 19.691 C 138.500 19.761,138.762 19.942,139.083 20.095 C 139.404 20.247,139.667 20.426,139.667 20.493 C 139.667 20.599,142.320 22.686,143.854 23.788 C 144.138 23.992,144.560 24.348,144.791 24.579 C 145.023 24.811,145.277 25.000,145.356 25.000 C 145.435 25.000,145.653 25.153,145.840 25.340 C 146.340 25.840,149.690 28.366,149.760 28.296 C 149.793 28.263,149.842 24.058,149.868 18.951 L 149.917 9.667 147.042 9.667 L 144.167 9.667 144.167 13.434 L 144.167 17.201 143.606 16.726 C 143.297 16.464,142.691 15.987,142.259 15.667 C 141.826 15.346,141.160 14.802,140.779 14.458 C 140.397 14.115,139.991 13.833,139.876 13.833 C 139.761 13.833,139.666 13.777,139.666 13.708 C 139.666 13.640,138.983 13.058,138.148 12.417 C 137.313 11.775,136.357 11.022,136.023 10.742 C 134.753 9.679,134.338 9.510,134.000 9.917 M156.833 9.917 C 156.719 10.054,156.526 10.167,156.405 10.167 C 156.283 10.167,156.123 10.266,156.050 10.387 C 155.977 10.509,155.392 11.010,154.750 11.502 C 154.108 11.993,153.558 12.456,153.528 12.531 C 153.497 12.606,153.381 12.667,153.269 12.667 C 153.157 12.667,152.811 12.929,152.500 13.250 C 152.189 13.571,151.837 13.833,151.717 13.833 C 151.598 13.833,151.500 13.927,151.500 14.042 C 151.500 14.203,152.181 14.237,154.500 14.195 L 157.500 14.140 157.500 21.153 L 157.500 28.167 160.417 28.167 L 163.333 28.167 163.333 21.167 L 163.333 14.167 163.934 14.167 C 164.534 14.167,165.623 13.487,166.134 12.795 C 166.254 12.633,166.433 12.500,166.531 12.500 C 166.629 12.500,166.981 12.270,167.313 11.989 C 168.519 10.969,169.425 10.285,169.792 10.118 C 169.998 10.024,170.167 9.884,170.167 9.807 C 170.167 9.528,157.066 9.636,156.833 9.917 M172.825 10.869 C 171.959 11.530,171.152 12.205,171.032 12.369 C 170.912 12.533,170.734 12.667,170.636 12.667 C 170.537 12.667,170.180 12.910,169.840 13.208 C 169.501 13.506,169.117 13.825,168.987 13.917 C 168.787 14.057,168.757 15.193,168.795 21.125 L 168.840 28.167 176.170 28.167 L 183.500 28.167 183.500 26.690 C 183.500 25.878,183.548 24.865,183.606 24.440 L 183.712 23.667 179.189 23.667 L 174.667 23.667 174.667 22.500 L 174.667 21.333 179.083 21.333 L 183.500 21.333 183.500 19.773 C 183.500 18.915,183.548 17.865,183.606 17.440 L 183.712 16.667 179.189 16.667 L 174.667 16.667 174.667 15.417 L 174.667 14.167 179.099 14.167 C 184.009 14.167,183.766 14.215,185.073 12.968 C 185.343 12.710,185.658 12.500,185.773 12.500 C 185.889 12.500,186.043 12.398,186.117 12.273 C 186.293 11.974,188.933 10.000,189.158 10.000 C 189.255 10.000,189.333 9.925,189.333 9.833 C 189.333 9.725,186.733 9.667,181.867 9.667 L 174.400 9.667 172.825 10.869 M193.327 10.136 C 193.003 10.382,192.558 10.752,192.338 10.958 C 192.117 11.165,191.879 11.333,191.808 11.333 C 191.738 11.333,191.545 11.471,191.381 11.640 C 191.218 11.809,190.483 12.416,189.750 12.989 C 189.017 13.561,188.424 14.098,188.433 14.182 C 188.442 14.265,188.461 17.446,188.475 21.250 L 188.500 28.167 191.333 28.167 L 194.167 28.167 194.167 21.149 L 194.167 14.131 196.042 14.196 C 198.731 14.289,199.506 14.789,199.557 16.462 C 199.609 18.141,198.454 18.974,196.052 18.991 C 195.267 18.996,194.639 19.076,194.575 19.179 C 194.464 19.360,195.027 20.000,195.297 20.000 C 195.376 20.000,195.736 20.299,196.096 20.664 C 196.456 21.029,196.825 21.330,196.917 21.332 C 197.008 21.335,197.335 21.596,197.643 21.913 C 197.951 22.230,198.345 22.534,198.518 22.589 C 198.691 22.644,198.833 22.751,198.833 22.826 C 198.833 22.941,199.867 23.803,203.235 26.495 C 203.518 26.722,203.848 27.041,203.968 27.204 C 204.088 27.367,204.271 27.500,204.375 27.500 C 204.480 27.500,204.775 27.701,205.031 27.946 C 205.664 28.553,205.644 28.645,205.677 25.018 L 205.707 21.795 204.645 20.987 C 204.061 20.543,203.499 20.176,203.395 20.173 C 202.737 20.151,202.899 19.705,203.839 18.953 C 206.290 16.991,205.670 12.470,202.712 10.737 C 200.834 9.636,194.520 9.232,193.327 10.136 M11.000 57.305 L 11.000 82.277 12.502 83.847 C 14.763 86.211,18.221 89.834,18.470 90.099 C 18.591 90.228,18.760 90.333,18.845 90.333 C 18.930 90.333,19.002 90.427,19.004 90.542 C 19.006 90.656,19.268 90.974,19.587 91.248 C 19.906 91.523,20.167 91.841,20.167 91.957 C 20.167 92.072,20.223 92.167,20.292 92.167 C 20.415 92.167,20.826 92.553,21.844 93.625 C 22.127 93.923,22.428 94.167,22.513 94.167 C 22.597 94.167,22.667 94.255,22.667 94.363 C 22.667 94.472,22.985 94.875,23.375 95.261 C 23.765 95.646,24.170 96.053,24.275 96.164 C 24.380 96.276,24.588 96.490,24.736 96.642 C 25.059 96.972,25.892 97.827,26.197 98.144 C 26.318 98.269,26.735 98.687,27.125 99.072 C 27.515 99.458,27.833 99.857,27.833 99.959 C 27.833 100.061,27.975 100.189,28.147 100.244 C 28.320 100.299,28.601 100.533,28.772 100.765 C 28.943 100.996,29.627 101.744,30.292 102.427 C 30.956 103.110,31.500 103.735,31.500 103.816 C 31.500 104.083,32.003 104.167,33.597 104.167 L 35.167 104.167 35.167 68.250 L 35.167 32.333 23.083 32.333 L 11.000 32.333 11.000 57.305 " stroke="none" fill="#fb4444" fill-rule="evenodd"></path></g></svg>